<svg width="187" height="80" viewBox="0 0 187 80" fill="none" xmlns="http://www.w3.org/2000/svg">
<path d="M5.47252 2L2.02765 10.5234H38.1988L34.7539 2H5.47252ZM2.12238 13.6397V66.3603H38.1041V13.6397H2.12238ZM2.02765 69.4766L5.47252 78H34.7539L38.1988 69.4766H2.02765Z" fill="black" stroke="black" stroke-width="2.052"/>
<path d="M19.4595 28.9329C19.789 28.1755 19.9539 27.7968 20.1834 27.6802C20.3827 27.5788 20.6167 27.5788 20.816 27.6802C21.0455 27.7968 21.2104 28.1755 21.5399 28.9329L24.1651 34.966C24.2626 35.1899 24.3113 35.3018 24.3867 35.3876C24.4534 35.4634 24.5349 35.5241 24.6259 35.5656C24.7288 35.6126 24.8478 35.6255 25.0859 35.6512L31.4982 36.3445C32.3033 36.4315 32.7057 36.475 32.885 36.6626C33.0406 36.8254 33.1129 37.0535 33.0804 37.279C33.0431 37.5386 32.7425 37.8161 32.1411 38.3713L27.3511 42.7933C27.1735 42.9574 27.0845 43.0395 27.0282 43.1394C26.9784 43.2279 26.9472 43.326 26.9368 43.4275C26.925 43.5423 26.9498 43.6622 26.9995 43.9021L28.3374 50.3635C28.5054 51.1748 28.5894 51.5803 28.4706 51.8128C28.3674 52.0149 28.1781 52.1558 27.9587 52.1939C27.7062 52.2376 27.3555 52.0305 26.6543 51.6162L21.0687 48.316C20.8614 48.1935 20.7578 48.1324 20.6476 48.1083C20.5501 48.0872 20.4493 48.0872 20.3518 48.1083C20.2416 48.1324 20.138 48.1935 19.9307 48.316L14.3452 51.6162C13.6439 52.0305 13.2933 52.2376 13.0407 52.1939C12.8214 52.1558 12.632 52.0149 12.5288 51.8128C12.4101 51.5803 12.4941 51.1748 12.6621 50.3635L13.9999 43.9021C14.0496 43.6622 14.0744 43.5423 14.0626 43.4275C14.0522 43.326 14.021 43.2279 13.9712 43.1394C13.9149 43.0395 13.826 42.9574 13.6483 42.7933L8.85835 38.3713C8.257 37.8161 7.95632 37.5386 7.91894 37.279C7.88648 37.0535 7.95881 36.8254 8.11447 36.6626C8.29368 36.475 8.6962 36.4315 9.50125 36.3445L15.9136 35.6512C16.1516 35.6255 16.2706 35.6126 16.3735 35.5656C16.4645 35.5241 16.546 35.4634 16.6128 35.3876C16.6881 35.3018 16.7369 35.1899 16.8343 34.966L19.4595 28.9329Z" stroke="white" stroke-width="1.78833" stroke-linecap="round" stroke-linejoin="round"/>
<path d="M17.4596 44.6934C17.4596 43.8409 17.4596 42.9885 17.4596 42.136C17.4596 41.7276 17.6374 40.7701 17.4056 40.3898C17.25 40.1345 17.4219 39.934 17.5675 39.6913C18.1074 38.7909 18.6702 37.8975 19.3047 37.0664C19.749 36.4842 20.7749 35.6929 20.9394 34.9202C20.9906 34.6798 21.0519 33.8013 20.8153 33.6641C20.3424 33.3898 19.8825 34.2437 19.6338 34.5034C18.838 35.3343 18.4743 36.3501 17.9667 37.4043C17.6955 37.9676 17.3875 38.5153 17.1359 39.0886C17.0047 39.3873 17.3203 39.3447 17.5405 39.3702C18.7193 39.507 20.3872 39.5359 21.4951 39.0154C22.398 38.5911 20.8145 37.4991 20.5563 37.3536C18.1586 36.0031 17.0491 39.0688 18.1178 41.0319C19.1302 42.8918 22.1126 41.1978 22.5633 39.6293C22.7717 38.9039 22.1693 38.3414 21.5166 38.238C20.2489 38.0372 19.6852 39.4583 19.7147 40.5475C19.7341 41.2652 20.0257 41.9491 20.8207 41.8769C21.626 41.8038 23.3266 41.0605 23.734 40.2546C24.0117 39.7052 21.8217 39.8802 21.6893 39.8941C20.5144 40.0172 19.008 40.3879 18.6357 41.753C18.1816 43.4176 20.5682 44.1367 21.7271 43.5893C22.3606 43.2901 22.6596 42.1081 22.1694 41.5614C21.3003 40.5921 20.6532 42.4271 20.5509 43.0429C20.2363 44.9367 21.4146 44.3251 22.6064 44.6145C23.5268 44.838 23.5164 45.5922 24.0092 46.2537C24.1716 46.4717 24.2756 46.6034 24.5487 46.6198C24.5996 46.6229 25.2038 46.7145 25.2069 46.6987C25.2937 46.2454 24.4515 45.1167 24.2573 44.7497C23.6822 43.6626 22.8627 42.5096 22.655 41.2629C22.3229 39.2693 24.9261 38.77 26.329 38.6323C26.529 38.6127 27.674 38.4221 27.516 38.4126C26.3292 38.3418 25.1218 38.407 23.9336 38.407C23.129 38.407 22.321 38.4268 21.5166 38.3957C21.141 38.3812 20.6792 38.3917 20.4161 38.0465C19.5009 36.846 19.8927 34.6315 20.1193 33.2641C20.1499 33.0799 20.2407 32.7206 20.1787 32.5262C20.1358 32.3918 20.0139 32.7554 19.9629 32.8867C19.711 33.5347 19.5716 34.2181 19.4018 34.8921C19.0046 36.468 18.4896 38.9902 16.4992 38.8013C15.385 38.6956 12.1371 37.8774 13.1759 38.3112C13.6636 38.5149 14.203 38.6073 14.6973 38.8126C15.2836 39.056 15.8093 39.4455 16.3913 39.68C17.3413 40.0629 17.4283 40.878 17.3031 41.8656C17.1268 43.2561 16.7798 44.6025 16.7798 46.0115" stroke="white" stroke-width="3" stroke-linecap="round"/>
<path d="M14.0607 40.0293C13.2945 40.0293 12.965 39.8927 12.3667 39.3815C12.0879 39.1434 11.9093 38.888 11.5412 38.6718C11.0097 38.3596 10.5075 37.9765 9.88492 37.9C9.69443 37.8766 9.45748 37.6821 9.26449 37.6015C8.84672 37.427 10.1933 37.7138 10.6133 37.5452C11.2934 37.272 10.0689 37.3931 9.78781 37.3931C9.52801 37.3931 9.3267 37.4058 9.10803 37.2917" stroke="white" stroke-width="2" stroke-linecap="round"/>
<path d="M10.856 37.0889C11.8928 37.0889 13.155 37.3014 14.1632 37.0382C14.7231 36.8921 15.3333 36.8447 15.9058 36.7904C16.2288 36.7597 17.2545 36.871 16.974 36.4805" stroke="white" stroke-width="2" stroke-linecap="round"/>
<path d="M16.5856 37.9C16.5537 37.9 16.3554 37.9026 16.4183 37.8888C17.0195 37.7566 17.6274 37.7444 18.2365 37.6973" stroke="white" stroke-width="2" stroke-linecap="round"/>
<path d="M17.6538 35.8722C17.6538 35.2118 17.5867 34.5387 17.902 33.9401C18.2737 33.2344 18.7452 32.5966 19.0134 31.839C19.1344 31.4971 19.1211 31.1184 19.2508 30.78C19.3777 30.4487 19.6278 30.2156 19.8388 29.9463C20.0519 29.6744 20.0772 29.3967 20.1787 29.0789" stroke="white" stroke-width="2" stroke-linecap="round"/>
<path d="M20.1787 29.0789C20.2382 29.7003 20.8091 30.4159 21.0527 30.9828C21.4059 31.8047 21.9977 32.3702 22.504 33.0839C22.8552 33.579 23.2511 34.0028 23.4265 34.6048C23.575 35.1142 23.7637 35.5821 23.966 36.075" stroke="white" stroke-width="2" stroke-linecap="round"/>
<path d="M23.966 36.075C24.895 36.075 25.8028 36.0097 26.6905 36.3341C27.3488 36.5746 28.0429 36.5716 28.7245 36.7059C29.4356 36.8459 29.9724 37.0889 30.7098 37.0889C30.8289 37.0889 31.809 37.2143 31.6378 37.3931" stroke="white" stroke-width="2" stroke-linecap="round"/>
<path d="M31.6378 37.3931C30.8686 37.3931 30.5303 37.5417 29.8898 38.0014C29.193 38.5016 28.5352 39.168 28.0015 39.849C27.2568 40.7993 26.2703 41.5408 25.6169 42.5641" stroke="white" stroke-width="2" stroke-linecap="round"/>
<path d="M25.6169 42.5641C26.8805 42.5641 27.6813 41.07 28.5788 40.2771C29.1392 39.782 29.7155 39.2537 30.2351 38.7112C30.5126 38.4214 30.7249 37.998 31.0497 37.7648C31.1818 37.67 31.2777 37.7394 31.3464 37.5959" stroke="white" stroke-width="2" stroke-linecap="round"/>
<path d="M25.7141 43.2739C25.7141 42.6875 25.7597 44.4655 25.9568 45.0144C26.3349 46.067 26.583 47.1817 26.9549 48.2421C27.1598 48.8262 27.4621 49.6968 27.4621 50.315C27.4621 50.5857 27.9347 50.8783 27.4621 50.8783" stroke="white" stroke-width="2" stroke-linecap="round"/>
<path d="M27.462 50.8783C26.1159 50.3918 25.5623 48.9228 24.3113 48.2421C23.6634 47.8896 23.0391 47.3144 22.3205 47.1268C21.8664 47.0082 21.5608 46.6198 21.0527 46.6198" stroke="white" stroke-width="2" stroke-linecap="round"/>
<path d="M21.0527 46.5184C21.8529 46.5944 22.6997 47.2128 23.2431 47.7802C23.6599 48.2154 24.0694 49.2068 24.6944 49.3518C25.2344 49.4771 23.7415 48.7583 23.3078 48.3998C22.9304 48.0879 22.4586 47.431 21.9267 47.431C21.3098 47.431 20.9408 46.9189 20.3729 46.7212" stroke="white" stroke-width="2" stroke-linecap="round"/>
<path d="M20.3729 46.7212C20.3474 46.9345 19.6108 46.8181 19.4773 46.8226C18.9017 46.842 18.3576 47.2498 17.8966 47.5831C17.2126 48.0775 16.5515 48.5737 15.8087 48.9744C15.3947 49.1977 14.4712 49.6097 14.2549 50.1179C14.1878 50.2756 13.298 50.8925 13.2676 50.7657C13.2483 50.6852 16.1932 49.1131 16.4885 48.9293C17.1677 48.5066 17.7325 47.9895 18.4792 47.6845C18.7663 47.5672 19.3343 47.5101 19.4018 47.2282" stroke="white" stroke-width="2" stroke-linecap="round"/>
<path d="M13.478 49.5602C13.478 48.3484 13.4061 47.1254 13.7693 45.9551C14.0802 44.9534 14.3711 44.0085 14.5948 42.9809C14.7864 42.1006 14.1178 41.8876 13.5643 41.3418C13.0774 40.8616 12.5525 40.2326 11.9997 39.8265C11.8098 39.6869 11.6522 39.5425 11.4872 39.3702C11.0667 38.9312 11.8542 39.2833 12.0321 39.3421C13.612 39.8642 15.1756 40.2869 16.6935 41.0038C16.9277 41.1144 17.5569 41.2805 17.6861 41.5952C17.6936 41.6135 15.7166 41.5768 15.5065 41.5502C15.0494 41.4922 14.7693 41.481 14.8375 40.9644C14.8991 40.4986 15.9869 39.9351 16.305 39.7307C17.8489 38.7388 19.2675 37.8181 20.5455 36.4355C21.1487 35.7829 21.3715 35.5242 21.4897 34.7343C21.6684 33.54 20.3306 32.8159 20.2758 31.6137C20.2642 31.3592 20.1756 31.3454 20.2002 31.6925C20.3084 33.2165 21.1173 34.587 21.9051 35.8271C22.4629 36.7051 23.0652 37.5891 23.4157 38.5873C23.4669 38.7332 23.5771 39.8032 23.3671 39.7758C22.7318 39.6929 22.8998 37.2787 22.8978 36.8748C22.8944 36.1873 22.8473 35.6489 22.709 34.9991C22.6749 34.8391 22.6305 34.1099 22.4122 34.0696C22.1059 34.0132 22.3302 34.7142 22.3151 35.0385C22.2391 36.6754 21.8529 38.2784 21.1714 39.7589C20.3724 41.4945 19.0691 43.2335 17.384 44.1132C17.1141 44.2541 16.4255 44.5699 16.1054 44.361C15.6551 44.0672 16.0652 42.7023 16.1539 42.2937C16.3216 41.5216 15.754 42.7397 15.7116 42.8795C15.2533 44.3899 15.3789 45.8493 14.6217 47.2507C14.2467 47.9449 13.7653 49.2334 15.0426 48.3266C15.9425 47.6877 16.4268 46.7679 16.974 45.8199C17.3273 45.2079 18.0228 44.7768 18.6087 44.4624C19.321 44.0802 19.6952 43.9929 19.0241 44.7609C18.4775 45.3865 16.7472 47.1312 17.438 46.6874C17.8858 46.3997 20.1252 44.9863 20.5995 45.7749C20.8526 46.1958 20.4901 46.53 20.1463 46.6592C19.2095 47.0114 21.8385 45.5413 22.7629 45.1553C24.0672 44.6105 24.2746 46.398 25.1313 47.1043C25.6917 47.5661 26.1897 48.4252 26.4315 49.1321C26.4559 49.2034 26.2981 49.0682 26.2427 49.0194C25.6908 48.5335 25.1142 48.0901 24.4947 47.7013C23.7306 47.2218 22.9288 46.698 22.1317 46.2818C21.7646 46.0902 21.4721 46.3271 21.7756 45.6735C22.5961 43.9066 23.94 42.4732 24.9911 40.863C25.2395 40.4823 25.5522 40.1164 25.6277 39.6631C25.6687 39.4168 25.9439 38.8607 25.509 39.3984C24.6262 40.4899 24.0501 42.3537 24.3598 43.809C24.3748 43.8792 24.4646 43.7103 24.4947 43.6456C24.7769 43.0405 24.9822 42.3966 25.2284 41.7755C25.5868 40.8716 26.0437 39.7917 26.7822 39.1393C27.1074 38.852 29.0158 38.7449 29.0158 38.2042C29.0158 36.9181 26.7818 37.1903 26.0863 37.1903C24.8945 37.1903 23.7815 37.1409 22.6064 36.9875" stroke="white" stroke-width="2" stroke-linecap="round"/>
<rect x="1.54718" y="24.9378" width="12.3774" height="0.807692" rx="0.403846" fill="white"/>
<rect x="1.54718" y="24.9378" width="12.3774" height="0.807692" rx="0.403846" fill="white"/>
<rect x="1.54718" y="28.9763" width="7.73585" height="0.807692" rx="0.403846" fill="white"/>
<rect x="3" y="5" width="33" height="1" rx="0.5" fill="#D41E00"/>
<rect x="2" y="62" width="9" height="1" rx="0.5" fill="white"/>
<path d="M5.47252 2L2.02765 10.5234H38.1988L34.7539 2H5.47252ZM2.12238 13.6397V66.3603H38.1041V13.6397H2.12238ZM2.02765 69.4766L5.47252 78H34.7539L38.1988 69.4766H2.02765Z" fill="black" stroke="black" stroke-width="2.052"/>
<path d="M19.4595 28.9329C19.789 28.1755 19.9539 27.7968 20.1834 27.6802C20.3827 27.5788 20.6167 27.5788 20.816 27.6802C21.0455 27.7968 21.2104 28.1755 21.5399 28.9329L24.1651 34.966C24.2626 35.1899 24.3113 35.3018 24.3867 35.3876C24.4534 35.4634 24.5349 35.5241 24.6259 35.5656C24.7288 35.6126 24.8478 35.6255 25.0859 35.6512L31.4982 36.3445C32.3033 36.4315 32.7057 36.475 32.885 36.6626C33.0406 36.8254 33.1129 37.0535 33.0804 37.279C33.0431 37.5386 32.7425 37.8161 32.1411 38.3713L27.3511 42.7933C27.1735 42.9574 27.0845 43.0395 27.0282 43.1394C26.9784 43.2279 26.9472 43.326 26.9368 43.4275C26.925 43.5423 26.9498 43.6622 26.9995 43.9021L28.3374 50.3635C28.5054 51.1748 28.5894 51.5803 28.4706 51.8128C28.3674 52.0149 28.1781 52.1558 27.9587 52.1939C27.7062 52.2376 27.3555 52.0305 26.6543 51.6162L21.0687 48.316C20.8614 48.1935 20.7578 48.1324 20.6476 48.1083C20.5501 48.0872 20.4493 48.0872 20.3518 48.1083C20.2416 48.1324 20.138 48.1935 19.9307 48.316L14.3452 51.6162C13.6439 52.0305 13.2933 52.2376 13.0407 52.1939C12.8214 52.1558 12.632 52.0149 12.5288 51.8128C12.4101 51.5803 12.4941 51.1748 12.6621 50.3635L13.9999 43.9021C14.0496 43.6622 14.0744 43.5423 14.0626 43.4275C14.0522 43.326 14.021 43.2279 13.9712 43.1394C13.9149 43.0395 13.826 42.9574 13.6483 42.7933L8.85835 38.3713C8.257 37.8161 7.95632 37.5386 7.91894 37.279C7.88648 37.0535 7.95881 36.8254 8.11447 36.6626C8.29368 36.475 8.6962 36.4315 9.50125 36.3445L15.9136 35.6512C16.1516 35.6255 16.2706 35.6126 16.3735 35.5656C16.4645 35.5241 16.546 35.4634 16.6128 35.3876C16.6881 35.3018 16.7369 35.1899 16.8343 34.966L19.4595 28.9329Z" stroke="white" stroke-width="1.78833" stroke-linecap="round" stroke-linejoin="round"/>
<path d="M17.4596 44.6934C17.4596 43.8409 17.4596 42.9885 17.4596 42.136C17.4596 41.7276 17.6374 40.7701 17.4056 40.3898C17.25 40.1345 17.4219 39.934 17.5675 39.6913C18.1074 38.7909 18.6702 37.8975 19.3047 37.0664C19.749 36.4842 20.7749 35.6929 20.9394 34.9202C20.9906 34.6798 21.0519 33.8013 20.8153 33.6641C20.3424 33.3898 19.8825 34.2437 19.6338 34.5034C18.838 35.3343 18.4743 36.3501 17.9667 37.4043C17.6955 37.9676 17.3875 38.5153 17.1359 39.0886C17.0047 39.3873 17.3203 39.3447 17.5405 39.3702C18.7193 39.507 20.3872 39.5359 21.4951 39.0154C22.398 38.5911 20.8145 37.4991 20.5563 37.3536C18.1586 36.0031 17.0491 39.0688 18.1178 41.0319C19.1302 42.8918 22.1126 41.1978 22.5633 39.6293C22.7717 38.9039 22.1693 38.3414 21.5166 38.238C20.2489 38.0372 19.6852 39.4583 19.7147 40.5475C19.7341 41.2652 20.0257 41.9491 20.8207 41.8769C21.626 41.8038 23.3266 41.0605 23.734 40.2546C24.0117 39.7052 21.8217 39.8802 21.6893 39.8941C20.5144 40.0172 19.008 40.3879 18.6357 41.753C18.1816 43.4176 20.5682 44.1367 21.7271 43.5893C22.3606 43.2901 22.6596 42.1081 22.1694 41.5614C21.3003 40.5921 20.6532 42.4271 20.5509 43.0429C20.2363 44.9367 21.4146 44.3251 22.6064 44.6145C23.5268 44.838 23.5164 45.5922 24.0092 46.2537C24.1716 46.4717 24.2756 46.6034 24.5487 46.6198C24.5996 46.6229 25.2038 46.7145 25.2069 46.6987C25.2937 46.2454 24.4515 45.1167 24.2573 44.7497C23.6822 43.6626 22.8627 42.5096 22.655 41.2629C22.3229 39.2693 24.9261 38.77 26.329 38.6323C26.529 38.6127 27.674 38.4221 27.516 38.4126C26.3292 38.3418 25.1218 38.407 23.9336 38.407C23.129 38.407 22.321 38.4268 21.5166 38.3957C21.141 38.3812 20.6792 38.3917 20.4161 38.0465C19.5009 36.846 19.8927 34.6315 20.1193 33.2641C20.1499 33.0799 20.2407 32.7206 20.1787 32.5262C20.1358 32.3918 20.0139 32.7554 19.9629 32.8867C19.711 33.5347 19.5716 34.2181 19.4018 34.8921C19.0046 36.468 18.4896 38.9902 16.4992 38.8013C15.385 38.6956 12.1371 37.8774 13.1759 38.3112C13.6636 38.5149 14.203 38.6073 14.6973 38.8126C15.2836 39.056 15.8093 39.4455 16.3913 39.68C17.3413 40.0629 17.4283 40.878 17.3031 41.8656C17.1268 43.2561 16.7798 44.6025 16.7798 46.0115" stroke="white" stroke-width="3" stroke-linecap="round"/>
<path d="M14.0607 40.0293C13.2945 40.0293 12.965 39.8927 12.3667 39.3815C12.0879 39.1434 11.9093 38.888 11.5412 38.6718C11.0097 38.3596 10.5075 37.9765 9.88492 37.9C9.69443 37.8766 9.45748 37.6821 9.26449 37.6015C8.84672 37.427 10.1933 37.7138 10.6133 37.5452C11.2934 37.272 10.0689 37.3931 9.78781 37.3931C9.52801 37.3931 9.3267 37.4058 9.10803 37.2917" stroke="white" stroke-width="2" stroke-linecap="round"/>
<path d="M10.856 37.0889C11.8928 37.0889 13.155 37.3014 14.1632 37.0382C14.7231 36.8921 15.3333 36.8447 15.9058 36.7904C16.2288 36.7597 17.2545 36.871 16.974 36.4805" stroke="white" stroke-width="2" stroke-linecap="round"/>
<path d="M16.5856 37.9C16.5537 37.9 16.3554 37.9026 16.4183 37.8888C17.0195 37.7566 17.6274 37.7444 18.2365 37.6973" stroke="white" stroke-width="2" stroke-linecap="round"/>
<path d="M17.6538 35.8722C17.6538 35.2118 17.5867 34.5387 17.902 33.9401C18.2737 33.2344 18.7452 32.5966 19.0134 31.839C19.1344 31.4971 19.1211 31.1184 19.2508 30.78C19.3777 30.4487 19.6278 30.2156 19.8388 29.9463C20.0519 29.6744 20.0772 29.3967 20.1787 29.0789" stroke="white" stroke-width="2" stroke-linecap="round"/>
<path d="M20.1787 29.0789C20.2382 29.7003 20.8091 30.4159 21.0527 30.9828C21.4059 31.8047 21.9977 32.3702 22.504 33.0839C22.8552 33.579 23.2511 34.0028 23.4265 34.6048C23.575 35.1142 23.7637 35.5821 23.966 36.075" stroke="white" stroke-width="2" stroke-linecap="round"/>
<path d="M23.966 36.075C24.895 36.075 25.8028 36.0097 26.6905 36.3341C27.3488 36.5746 28.0429 36.5716 28.7245 36.7059C29.4356 36.8459 29.9724 37.0889 30.7098 37.0889C30.8289 37.0889 31.809 37.2143 31.6378 37.3931" stroke="white" stroke-width="2" stroke-linecap="round"/>
<path d="M31.6378 37.3931C30.8686 37.3931 30.5303 37.5417 29.8898 38.0014C29.193 38.5016 28.5352 39.168 28.0015 39.849C27.2568 40.7993 26.2703 41.5408 25.6169 42.5641" stroke="white" stroke-width="2" stroke-linecap="round"/>
<path d="M25.6169 42.5641C26.8805 42.5641 27.6813 41.07 28.5788 40.2771C29.1392 39.782 29.7155 39.2537 30.2351 38.7112C30.5126 38.4214 30.7249 37.998 31.0497 37.7648C31.1818 37.67 31.2777 37.7394 31.3464 37.5959" stroke="white" stroke-width="2" stroke-linecap="round"/>
<path d="M25.7141 43.2739C25.7141 42.6875 25.7597 44.4655 25.9568 45.0144C26.3349 46.067 26.583 47.1817 26.9549 48.2421C27.1598 48.8262 27.4621 49.6968 27.4621 50.315C27.4621 50.5857 27.9347 50.8783 27.4621 50.8783" stroke="white" stroke-width="2" stroke-linecap="round"/>
<path d="M27.462 50.8783C26.1159 50.3918 25.5623 48.9228 24.3113 48.2421C23.6634 47.8896 23.0391 47.3144 22.3205 47.1268C21.8664 47.0082 21.5608 46.6198 21.0527 46.6198" stroke="white" stroke-width="2" stroke-linecap="round"/>
<path d="M21.0527 46.5184C21.8529 46.5944 22.6997 47.2128 23.2431 47.7802C23.6599 48.2154 24.0694 49.2068 24.6944 49.3518C25.2344 49.4771 23.7415 48.7583 23.3078 48.3998C22.9304 48.0879 22.4586 47.431 21.9267 47.431C21.3098 47.431 20.9408 46.9189 20.3729 46.7212" stroke="white" stroke-width="2" stroke-linecap="round"/>
<path d="M20.3729 46.7212C20.3474 46.9345 19.6108 46.8181 19.4773 46.8226C18.9017 46.842 18.3576 47.2498 17.8966 47.5831C17.2126 48.0775 16.5515 48.5737 15.8087 48.9744C15.3947 49.1977 14.4712 49.6097 14.2549 50.1179C14.1878 50.2756 13.298 50.8925 13.2676 50.7657C13.2483 50.6852 16.1932 49.1131 16.4885 48.9293C17.1677 48.5066 17.7325 47.9895 18.4792 47.6845C18.7663 47.5672 19.3343 47.5101 19.4018 47.2282" stroke="white" stroke-width="2" stroke-linecap="round"/>
<path d="M13.478 49.5602C13.478 48.3484 13.4061 47.1254 13.7693 45.9551C14.0802 44.9534 14.3711 44.0085 14.5948 42.9809C14.7864 42.1006 14.1178 41.8876 13.5643 41.3418C13.0774 40.8616 12.5525 40.2326 11.9997 39.8265C11.8098 39.6869 11.6522 39.5425 11.4872 39.3702C11.0667 38.9312 11.8542 39.2833 12.0321 39.3421C13.612 39.8642 15.1756 40.2869 16.6935 41.0038C16.9277 41.1144 17.5569 41.2805 17.6861 41.5952C17.6936 41.6135 15.7166 41.5768 15.5065 41.5502C15.0494 41.4922 14.7693 41.481 14.8375 40.9644C14.8991 40.4986 15.9869 39.9351 16.305 39.7307C17.8489 38.7388 19.2675 37.8181 20.5455 36.4355C21.1487 35.7829 21.3715 35.5242 21.4897 34.7343C21.6684 33.54 20.3306 32.8159 20.2758 31.6137C20.2642 31.3592 20.1756 31.3454 20.2002 31.6925C20.3084 33.2165 21.1173 34.587 21.9051 35.8271C22.4629 36.7051 23.0652 37.5891 23.4157 38.5873C23.4669 38.7332 23.5771 39.8032 23.3671 39.7758C22.7318 39.6929 22.8998 37.2787 22.8978 36.8748C22.8944 36.1873 22.8473 35.6489 22.709 34.9991C22.6749 34.8391 22.6305 34.1099 22.4122 34.0696C22.1059 34.0132 22.3302 34.7142 22.3151 35.0385C22.2391 36.6754 21.8529 38.2784 21.1714 39.7589C20.3724 41.4945 19.0691 43.2335 17.384 44.1132C17.1141 44.2541 16.4255 44.5699 16.1054 44.361C15.6551 44.0672 16.0652 42.7023 16.1539 42.2937C16.3216 41.5216 15.754 42.7397 15.7116 42.8795C15.2533 44.3899 15.3789 45.8493 14.6217 47.2507C14.2467 47.9449 13.7653 49.2334 15.0426 48.3266C15.9425 47.6877 16.4268 46.7679 16.974 45.8199C17.3273 45.2079 18.0228 44.7768 18.6087 44.4624C19.321 44.0802 19.6952 43.9929 19.0241 44.7609C18.4775 45.3865 16.7472 47.1312 17.438 46.6874C17.8858 46.3997 20.1252 44.9863 20.5995 45.7749C20.8526 46.1958 20.4901 46.53 20.1463 46.6592C19.2095 47.0114 21.8385 45.5413 22.7629 45.1553C24.0672 44.6105 24.2746 46.398 25.1313 47.1043C25.6917 47.5661 26.1897 48.4252 26.4315 49.1321C26.4559 49.2034 26.2981 49.0682 26.2427 49.0194C25.6908 48.5335 25.1142 48.0901 24.4947 47.7013C23.7306 47.2218 22.9288 46.698 22.1317 46.2818C21.7646 46.0902 21.4721 46.3271 21.7756 45.6735C22.5961 43.9066 23.94 42.4732 24.9911 40.863C25.2395 40.4823 25.5522 40.1164 25.6277 39.6631C25.6687 39.4168 25.9439 38.8607 25.509 39.3984C24.6262 40.4899 24.0501 42.3537 24.3598 43.809C24.3748 43.8792 24.4646 43.7103 24.4947 43.6456C24.7769 43.0405 24.9822 42.3966 25.2284 41.7755C25.5868 40.8716 26.0437 39.7917 26.7822 39.1393C27.1074 38.852 29.0158 38.7449 29.0158 38.2042C29.0158 36.9181 26.7818 37.1903 26.0863 37.1903C24.8945 37.1903 23.7815 37.1409 22.6064 36.9875" stroke="white" stroke-width="2" stroke-linecap="round"/>
<rect x="1.54718" y="24.9378" width="12.3774" height="0.807692" rx="0.403846" fill="white"/>
<rect x="1.54718" y="24.9378" width="12.3774" height="0.807692" rx="0.403846" fill="white"/>
<rect x="1.54718" y="28.9763" width="7.73585" height="0.807692" rx="0.403846" fill="white"/>
<rect x="3" y="5" width="33" height="1" rx="0.5" fill="#D41E00"/>
<rect x="2" y="62" width="9" height="1" rx="0.5" fill="white"/>
<path d="M5.47252 2L2.02765 10.5234H38.1988L34.7539 2H5.47252ZM2.12238 13.6397V66.3603H38.1041V13.6397H2.12238ZM2.02765 69.4766L5.47252 78H34.7539L38.1988 69.4766H2.02765Z" fill="black" stroke="black" stroke-width="2.052"/>
<path d="M19.4595 28.9329C19.789 28.1755 19.9539 27.7968 20.1834 27.6802C20.3827 27.5788 20.6167 27.5788 20.816 27.6802C21.0455 27.7968 21.2104 28.1755 21.5399 28.9329L24.1651 34.966C24.2626 35.1899 24.3113 35.3018 24.3867 35.3876C24.4534 35.4634 24.5349 35.5241 24.6259 35.5656C24.7288 35.6126 24.8478 35.6255 25.0859 35.6512L31.4982 36.3445C32.3033 36.4315 32.7057 36.475 32.885 36.6626C33.0406 36.8254 33.1129 37.0535 33.0804 37.279C33.0431 37.5386 32.7425 37.8161 32.1411 38.3713L27.3511 42.7933C27.1735 42.9574 27.0845 43.0395 27.0282 43.1394C26.9784 43.2279 26.9472 43.326 26.9368 43.4275C26.925 43.5423 26.9498 43.6622 26.9995 43.9021L28.3374 50.3635C28.5054 51.1748 28.5894 51.5803 28.4706 51.8128C28.3674 52.0149 28.1781 52.1558 27.9587 52.1939C27.7062 52.2376 27.3555 52.0305 26.6543 51.6162L21.0687 48.316C20.8614 48.1935 20.7578 48.1324 20.6476 48.1083C20.5501 48.0872 20.4493 48.0872 20.3518 48.1083C20.2416 48.1324 20.138 48.1935 19.9307 48.316L14.3452 51.6162C13.6439 52.0305 13.2933 52.2376 13.0407 52.1939C12.8214 52.1558 12.632 52.0149 12.5288 51.8128C12.4101 51.5803 12.4941 51.1748 12.6621 50.3635L13.9999 43.9021C14.0496 43.6622 14.0744 43.5423 14.0626 43.4275C14.0522 43.326 14.021 43.2279 13.9712 43.1394C13.9149 43.0395 13.826 42.9574 13.6483 42.7933L8.85835 38.3713C8.257 37.8161 7.95632 37.5386 7.91894 37.279C7.88648 37.0535 7.95881 36.8254 8.11447 36.6626C8.29368 36.475 8.6962 36.4315 9.50125 36.3445L15.9136 35.6512C16.1516 35.6255 16.2706 35.6126 16.3735 35.5656C16.4645 35.5241 16.546 35.4634 16.6128 35.3876C16.6881 35.3018 16.7369 35.1899 16.8343 34.966L19.4595 28.9329Z" stroke="white" stroke-width="1.78833" stroke-linecap="round" stroke-linejoin="round"/>
<path d="M17.4596 44.6934C17.4596 43.8409 17.4596 42.9885 17.4596 42.136C17.4596 41.7276 17.6374 40.7701 17.4056 40.3898C17.25 40.1345 17.4219 39.934 17.5675 39.6913C18.1074 38.7909 18.6702 37.8975 19.3047 37.0664C19.749 36.4842 20.7749 35.6929 20.9394 34.9202C20.9906 34.6798 21.0519 33.8013 20.8153 33.6641C20.3424 33.3898 19.8825 34.2437 19.6338 34.5034C18.838 35.3343 18.4743 36.3501 17.9667 37.4043C17.6955 37.9676 17.3875 38.5153 17.1359 39.0886C17.0047 39.3873 17.3203 39.3447 17.5405 39.3702C18.7193 39.507 20.3872 39.5359 21.4951 39.0154C22.398 38.5911 20.8145 37.4991 20.5563 37.3536C18.1586 36.0031 17.0491 39.0688 18.1178 41.0319C19.1302 42.8918 22.1126 41.1978 22.5633 39.6293C22.7717 38.9039 22.1693 38.3414 21.5166 38.238C20.2489 38.0372 19.6852 39.4583 19.7147 40.5475C19.7341 41.2652 20.0257 41.9491 20.8207 41.8769C21.626 41.8038 23.3266 41.0605 23.734 40.2546C24.0117 39.7052 21.8217 39.8802 21.6893 39.8941C20.5144 40.0172 19.008 40.3879 18.6357 41.753C18.1816 43.4176 20.5682 44.1367 21.7271 43.5893C22.3606 43.2901 22.6596 42.1081 22.1694 41.5614C21.3003 40.5921 20.6532 42.4271 20.5509 43.0429C20.2363 44.9367 21.4146 44.3251 22.6064 44.6145C23.5268 44.838 23.5164 45.5922 24.0092 46.2537C24.1716 46.4717 24.2756 46.6034 24.5487 46.6198C24.5996 46.6229 25.2038 46.7145 25.2069 46.6987C25.2937 46.2454 24.4515 45.1167 24.2573 44.7497C23.6822 43.6626 22.8627 42.5096 22.655 41.2629C22.3229 39.2693 24.9261 38.77 26.329 38.6323C26.529 38.6127 27.674 38.4221 27.516 38.4126C26.3292 38.3418 25.1218 38.407 23.9336 38.407C23.129 38.407 22.321 38.4268 21.5166 38.3957C21.141 38.3812 20.6792 38.3917 20.4161 38.0465C19.5009 36.846 19.8927 34.6315 20.1193 33.2641C20.1499 33.0799 20.2407 32.7206 20.1787 32.5262C20.1358 32.3918 20.0139 32.7554 19.9629 32.8867C19.711 33.5347 19.5716 34.2181 19.4018 34.8921C19.0046 36.468 18.4896 38.9902 16.4992 38.8013C15.385 38.6956 12.1371 37.8774 13.1759 38.3112C13.6636 38.5149 14.203 38.6073 14.6973 38.8126C15.2836 39.056 15.8093 39.4455 16.3913 39.68C17.3413 40.0629 17.4283 40.878 17.3031 41.8656C17.1268 43.2561 16.7798 44.6025 16.7798 46.0115" stroke="white" stroke-width="3" stroke-linecap="round"/>
<path d="M14.0607 40.0293C13.2945 40.0293 12.965 39.8927 12.3667 39.3815C12.0879 39.1434 11.9093 38.888 11.5412 38.6718C11.0097 38.3596 10.5075 37.9765 9.88492 37.9C9.69443 37.8766 9.45748 37.6821 9.26449 37.6015C8.84672 37.427 10.1933 37.7138 10.6133 37.5452C11.2934 37.272 10.0689 37.3931 9.78781 37.3931C9.52801 37.3931 9.3267 37.4058 9.10803 37.2917" stroke="white" stroke-width="2" stroke-linecap="round"/>
<path d="M10.856 37.0889C11.8928 37.0889 13.155 37.3014 14.1632 37.0382C14.7231 36.8921 15.3333 36.8447 15.9058 36.7904C16.2288 36.7597 17.2545 36.871 16.974 36.4805" stroke="white" stroke-width="2" stroke-linecap="round"/>
<path d="M16.5856 37.9C16.5537 37.9 16.3554 37.9026 16.4183 37.8888C17.0195 37.7566 17.6274 37.7444 18.2365 37.6973" stroke="white" stroke-width="2" stroke-linecap="round"/>
<path d="M17.6538 35.8722C17.6538 35.2118 17.5867 34.5387 17.902 33.9401C18.2737 33.2344 18.7452 32.5966 19.0134 31.839C19.1344 31.4971 19.1211 31.1184 19.2508 30.78C19.3777 30.4487 19.6278 30.2156 19.8388 29.9463C20.0519 29.6744 20.0772 29.3967 20.1787 29.0789" stroke="white" stroke-width="2" stroke-linecap="round"/>
<path d="M20.1787 29.0789C20.2382 29.7003 20.8091 30.4159 21.0527 30.9828C21.4059 31.8047 21.9977 32.3702 22.504 33.0839C22.8552 33.579 23.2511 34.0028 23.4265 34.6048C23.575 35.1142 23.7637 35.5821 23.966 36.075" stroke="white" stroke-width="2" stroke-linecap="round"/>
<path d="M23.966 36.075C24.895 36.075 25.8028 36.0097 26.6905 36.3341C27.3488 36.5746 28.0429 36.5716 28.7245 36.7059C29.4356 36.8459 29.9724 37.0889 30.7098 37.0889C30.8289 37.0889 31.809 37.2143 31.6378 37.3931" stroke="white" stroke-width="2" stroke-linecap="round"/>
<path d="M31.6378 37.3931C30.8686 37.3931 30.5303 37.5417 29.8898 38.0014C29.193 38.5016 28.5352 39.168 28.0015 39.849C27.2568 40.7993 26.2703 41.5408 25.6169 42.5641" stroke="white" stroke-width="2" stroke-linecap="round"/>
<path d="M25.6169 42.5641C26.8805 42.5641 27.6813 41.07 28.5788 40.2771C29.1392 39.782 29.7155 39.2537 30.2351 38.7112C30.5126 38.4214 30.7249 37.998 31.0497 37.7648C31.1818 37.67 31.2777 37.7394 31.3464 37.5959" stroke="white" stroke-width="2" stroke-linecap="round"/>
<path d="M25.7141 43.2739C25.7141 42.6875 25.7597 44.4655 25.9568 45.0144C26.3349 46.067 26.583 47.1817 26.9549 48.2421C27.1598 48.8262 27.4621 49.6968 27.4621 50.315C27.4621 50.5857 27.9347 50.8783 27.4621 50.8783" stroke="white" stroke-width="2" stroke-linecap="round"/>
<path d="M27.462 50.8783C26.1159 50.3918 25.5623 48.9228 24.3113 48.2421C23.6634 47.8896 23.0391 47.3144 22.3205 47.1268C21.8664 47.0082 21.5608 46.6198 21.0527 46.6198" stroke="white" stroke-width="2" stroke-linecap="round"/>
<path d="M21.0527 46.5184C21.8529 46.5944 22.6997 47.2128 23.2431 47.7802C23.6599 48.2154 24.0694 49.2068 24.6944 49.3518C25.2344 49.4771 23.7415 48.7583 23.3078 48.3998C22.9304 48.0879 22.4586 47.431 21.9267 47.431C21.3098 47.431 20.9408 46.9189 20.3729 46.7212" stroke="white" stroke-width="2" stroke-linecap="round"/>
<path d="M20.3729 46.7212C20.3474 46.9345 19.6108 46.8181 19.4773 46.8226C18.9017 46.842 18.3576 47.2498 17.8966 47.5831C17.2126 48.0775 16.5515 48.5737 15.8087 48.9744C15.3947 49.1977 14.4712 49.6097 14.2549 50.1179C14.1878 50.2756 13.298 50.8925 13.2676 50.7657C13.2483 50.6852 16.1932 49.1131 16.4885 48.9293C17.1677 48.5066 17.7325 47.9895 18.4792 47.6845C18.7663 47.5672 19.3343 47.5101 19.4018 47.2282" stroke="white" stroke-width="2" stroke-linecap="round"/>
<path d="M13.478 49.5602C13.478 48.3484 13.4061 47.1254 13.7693 45.9551C14.0802 44.9534 14.3711 44.0085 14.5948 42.9809C14.7864 42.1006 14.1178 41.8876 13.5643 41.3418C13.0774 40.8616 12.5525 40.2326 11.9997 39.8265C11.8098 39.6869 11.6522 39.5425 11.4872 39.3702C11.0667 38.9312 11.8542 39.2833 12.0321 39.3421C13.612 39.8642 15.1756 40.2869 16.6935 41.0038C16.9277 41.1144 17.5569 41.2805 17.6861 41.5952C17.6936 41.6135 15.7166 41.5768 15.5065 41.5502C15.0494 41.4922 14.7693 41.481 14.8375 40.9644C14.8991 40.4986 15.9869 39.9351 16.305 39.7307C17.8489 38.7388 19.2675 37.8181 20.5455 36.4355C21.1487 35.7829 21.3715 35.5242 21.4897 34.7343C21.6684 33.54 20.3306 32.8159 20.2758 31.6137C20.2642 31.3592 20.1756 31.3454 20.2002 31.6925C20.3084 33.2165 21.1173 34.587 21.9051 35.8271C22.4629 36.7051 23.0652 37.5891 23.4157 38.5873C23.4669 38.7332 23.5771 39.8032 23.3671 39.7758C22.7318 39.6929 22.8998 37.2787 22.8978 36.8748C22.8944 36.1873 22.8473 35.6489 22.709 34.9991C22.6749 34.8391 22.6305 34.1099 22.4122 34.0696C22.1059 34.0132 22.3302 34.7142 22.3151 35.0385C22.2391 36.6754 21.8529 38.2784 21.1714 39.7589C20.3724 41.4945 19.0691 43.2335 17.384 44.1132C17.1141 44.2541 16.4255 44.5699 16.1054 44.361C15.6551 44.0672 16.0652 42.7023 16.1539 42.2937C16.3216 41.5216 15.754 42.7397 15.7116 42.8795C15.2533 44.3899 15.3789 45.8493 14.6217 47.2507C14.2467 47.9449 13.7653 49.2334 15.0426 48.3266C15.9425 47.6877 16.4268 46.7679 16.974 45.8199C17.3273 45.2079 18.0228 44.7768 18.6087 44.4624C19.321 44.0802 19.6952 43.9929 19.0241 44.7609C18.4775 45.3865 16.7472 47.1312 17.438 46.6874C17.8858 46.3997 20.1252 44.9863 20.5995 45.7749C20.8526 46.1958 20.4901 46.53 20.1463 46.6592C19.2095 47.0114 21.8385 45.5413 22.7629 45.1553C24.0672 44.6105 24.2746 46.398 25.1313 47.1043C25.6917 47.5661 26.1897 48.4252 26.4315 49.1321C26.4559 49.2034 26.2981 49.0682 26.2427 49.0194C25.6908 48.5335 25.1142 48.0901 24.4947 47.7013C23.7306 47.2218 22.9288 46.698 22.1317 46.2818C21.7646 46.0902 21.4721 46.3271 21.7756 45.6735C22.5961 43.9066 23.94 42.4732 24.9911 40.863C25.2395 40.4823 25.5522 40.1164 25.6277 39.6631C25.6687 39.4168 25.9439 38.8607 25.509 39.3984C24.6262 40.4899 24.0501 42.3537 24.3598 43.809C24.3748 43.8792 24.4646 43.7103 24.4947 43.6456C24.7769 43.0405 24.9822 42.3966 25.2284 41.7755C25.5868 40.8716 26.0437 39.7917 26.7822 39.1393C27.1074 38.852 29.0158 38.7449 29.0158 38.2042C29.0158 36.9181 26.7818 37.1903 26.0863 37.1903C24.8945 37.1903 23.7815 37.1409 22.6064 36.9875" stroke="white" stroke-width="2" stroke-linecap="round"/>
<rect x="1.54718" y="24.9378" width="12.3774" height="0.807692" rx="0.403846" fill="white"/>
<rect x="1.54718" y="24.9378" width="12.3774" height="0.807692" rx="0.403846" fill="white"/>
<rect x="1.54718" y="28.9763" width="7.73585" height="0.807692" rx="0.403846" fill="white"/>
<rect x="3" y="5" width="33" height="1" rx="0.5" fill="#D41E00"/>
<rect x="2" y="62" width="9" height="1" rx="0.5" fill="white"/>
<path d="M48.189 41C48.131 41 48.102 40.942 48.102 40.826C48.102 40.71 48.131 40.652 48.189 40.652C48.8077 40.652 49.2523 40.6037 49.523 40.507C49.813 40.4103 50.0063 40.2267 50.103 39.956C50.1997 39.666 50.248 39.231 50.248 38.651V25.224C50.248 24.644 50.1997 24.2187 50.103 23.948C50.0063 23.6773 49.813 23.4937 49.523 23.397C49.233 23.281 48.7883 23.223 48.189 23.223C48.131 23.223 48.102 23.165 48.102 23.049C48.102 22.933 48.131 22.875 48.189 22.875H60.485C60.6783 22.875 60.775 22.962 60.775 23.136L60.833 26.993C60.833 27.0317 60.775 27.0607 60.659 27.08C60.5623 27.0993 60.5043 27.08 60.485 27.022C60.1757 25.9007 59.6537 25.0693 58.919 24.528C58.1843 23.9867 57.2177 23.716 56.019 23.716H55.149C54.569 23.716 54.1437 23.8417 53.873 24.093C53.6023 24.3443 53.467 24.731 53.467 25.253V38.535C53.467 39.0957 53.5733 39.5113 53.786 39.782C53.9987 40.0527 54.337 40.188 54.801 40.188H55.758C57.266 40.188 58.4743 39.8787 59.383 39.26C60.2917 38.6413 60.9587 37.6843 61.384 36.389C61.384 36.3503 61.4227 36.331 61.5 36.331C61.558 36.331 61.6063 36.3503 61.645 36.389C61.703 36.4083 61.732 36.4277 61.732 36.447C61.5387 37.955 61.442 39.3277 61.442 40.565C61.442 40.7197 61.413 40.8357 61.355 40.913C61.297 40.971 61.181 41 61.007 41H48.189ZM59.383 34.533C59.383 33.7403 59.0737 33.1217 58.455 32.677C57.8557 32.213 56.9857 31.981 55.845 31.981H51.93V31.169H55.874C56.9953 31.169 57.8557 30.9757 58.455 30.589C59.0543 30.2023 59.354 29.661 59.354 28.965C59.354 28.907 59.4023 28.878 59.499 28.878C59.615 28.878 59.673 28.907 59.673 28.965L59.644 31.575L59.673 32.967C59.7117 33.6243 59.731 34.1463 59.731 34.533C59.731 34.5717 59.673 34.591 59.557 34.591C59.441 34.591 59.383 34.5717 59.383 34.533ZM66.684 23.542L67.554 23.6V37.317C67.554 38.3417 67.7666 39.1537 68.192 39.753C68.6173 40.3523 69.207 40.652 69.961 40.652C69.9996 40.652 70.019 40.71 70.019 40.826C70.019 40.942 69.9996 41 69.961 41C69.4196 41 69.004 40.9903 68.714 40.971L67.148 40.942L65.35 40.971C65.0213 40.9903 64.5476 41 63.929 41C63.871 41 63.842 40.942 63.842 40.826C63.842 40.71 63.871 40.652 63.929 40.652C64.7796 40.652 65.4466 40.3523 65.93 39.753C66.4326 39.1537 66.684 38.3417 66.684 37.317V23.542ZM81.474 41.435C81.474 41.493 81.4256 41.5317 81.329 41.551C81.2516 41.5703 81.1936 41.5607 81.155 41.522L66.858 25.253C66.1813 24.4797 65.6013 23.948 65.118 23.658C64.6346 23.368 64.1416 23.223 63.639 23.223C63.6003 23.223 63.581 23.165 63.581 23.049C63.581 22.933 63.6003 22.875 63.639 22.875L64.857 22.904C65.1083 22.9233 65.4756 22.933 65.959 22.933L68.163 22.904C68.4336 22.8847 68.7623 22.875 69.149 22.875C69.3036 22.875 69.4196 22.9137 69.497 22.991C69.5743 23.0683 69.7096 23.2327 69.903 23.484C70.2316 23.9287 70.4636 24.2283 70.599 24.383L81.242 36.65L81.474 41.435ZM81.474 41.435L80.633 40.565V26.587C80.633 25.543 80.4203 24.7213 79.995 24.122C79.5696 23.5227 78.98 23.223 78.226 23.223C78.1873 23.223 78.168 23.165 78.168 23.049C78.168 22.933 78.1873 22.875 78.226 22.875L79.473 22.904C80.0916 22.9427 80.6136 22.962 81.039 22.962C81.4256 22.962 81.967 22.9427 82.663 22.904L83.968 22.875C84.0066 22.875 84.026 22.933 84.026 23.049C84.026 23.165 84.0066 23.223 83.968 23.223C83.1946 23.223 82.5856 23.5323 82.141 24.151C81.6963 24.7503 81.474 25.5623 81.474 26.587V41.435ZM85.5152 41C85.4572 41 85.4282 40.942 85.4282 40.826C85.4282 40.71 85.4572 40.652 85.5152 40.652C86.1338 40.652 86.5785 40.6037 86.8492 40.507C87.1392 40.4103 87.3325 40.2267 87.4292 39.956C87.5258 39.666 87.5742 39.231 87.5742 38.651V25.224C87.5742 24.644 87.5258 24.2187 87.4292 23.948C87.3325 23.6773 87.1392 23.4937 86.8492 23.397C86.5592 23.281 86.1145 23.223 85.5152 23.223C85.4572 23.223 85.4282 23.165 85.4282 23.049C85.4282 22.933 85.4572 22.875 85.5152 22.875H97.8112C98.0045 22.875 98.1012 22.962 98.1012 23.136L98.1592 26.993C98.1592 27.0317 98.1012 27.0607 97.9852 27.08C97.8885 27.0993 97.8305 27.08 97.8112 27.022C97.5018 25.9007 96.9798 25.0693 96.2452 24.528C95.5105 23.9867 94.5438 23.716 93.3452 23.716H92.4752C91.8952 23.716 91.4698 23.8417 91.1992 24.093C90.9285 24.3443 90.7932 24.731 90.7932 25.253V38.535C90.7932 39.0957 90.8995 39.5113 91.1122 39.782C91.3248 40.0527 91.6632 40.188 92.1272 40.188H93.0842C94.5922 40.188 95.8005 39.8787 96.7092 39.26C97.6178 38.6413 98.2848 37.6843 98.7102 36.389C98.7102 36.3503 98.7488 36.331 98.8262 36.331C98.8842 36.331 98.9325 36.3503 98.9712 36.389C99.0292 36.4083 99.0582 36.4277 99.0582 36.447C98.8648 37.955 98.7682 39.3277 98.7682 40.565C98.7682 40.7197 98.7392 40.8357 98.6812 40.913C98.6232 40.971 98.5072 41 98.3332 41H85.5152ZM96.7092 34.533C96.7092 33.7403 96.3998 33.1217 95.7812 32.677C95.1818 32.213 94.3118 31.981 93.1712 31.981H89.2562V31.169H93.2002C94.3215 31.169 95.1818 30.9757 95.7812 30.589C96.3805 30.2023 96.6802 29.661 96.6802 28.965C96.6802 28.907 96.7285 28.878 96.8252 28.878C96.9412 28.878 96.9992 28.907 96.9992 28.965L96.9702 31.575L96.9992 32.967C97.0378 33.6243 97.0572 34.1463 97.0572 34.533C97.0572 34.5717 96.9992 34.591 96.8832 34.591C96.7672 34.591 96.7092 34.5717 96.7092 34.533ZM115.697 41C115.252 41 114.431 40.1977 113.232 38.593C112.033 36.969 110.583 34.7167 108.882 31.836L111.55 31.024C113.155 33.46 114.489 35.3643 115.552 36.737C116.635 38.1097 117.592 39.1053 118.423 39.724C119.254 40.3427 120.066 40.652 120.859 40.652C120.898 40.652 120.917 40.71 120.917 40.826C120.917 40.942 120.898 41 120.859 41H115.697ZM109.462 22.788C111.221 22.788 112.584 23.1167 113.551 23.774C114.518 24.412 115.001 25.311 115.001 26.471C115.001 27.573 114.682 28.5687 114.044 29.458C113.425 30.3473 112.613 31.0433 111.608 31.546C110.603 32.0293 109.549 32.271 108.447 32.271C107.693 32.271 107.161 32.2613 106.852 32.242V38.651C106.852 39.2503 106.9 39.6853 106.997 39.956C107.094 40.2267 107.277 40.4103 107.548 40.507C107.838 40.6037 108.292 40.652 108.911 40.652C108.95 40.652 108.969 40.71 108.969 40.826C108.969 40.942 108.95 41 108.911 41C108.273 41 107.77 40.9903 107.403 40.971L105.199 40.942L103.082 40.971C102.695 40.9903 102.173 41 101.516 41C101.458 41 101.429 40.942 101.429 40.826C101.429 40.71 101.458 40.652 101.516 40.652C102.135 40.652 102.579 40.6037 102.85 40.507C103.14 40.4103 103.333 40.2267 103.43 39.956C103.546 39.666 103.604 39.231 103.604 38.651V25.224C103.604 24.644 103.556 24.2187 103.459 23.948C103.362 23.6773 103.169 23.4937 102.879 23.397C102.589 23.281 102.144 23.223 101.545 23.223C101.506 23.223 101.487 23.165 101.487 23.049C101.487 22.933 101.506 22.875 101.545 22.875L103.082 22.904C103.971 22.9427 104.677 22.962 105.199 22.962C105.856 22.962 106.543 22.933 107.258 22.875C107.509 22.8557 107.819 22.8363 108.186 22.817C108.573 22.7977 108.998 22.788 109.462 22.788ZM111.695 27.573C111.695 25.9877 111.463 24.8953 110.999 24.296C110.535 23.6967 109.868 23.397 108.998 23.397C108.225 23.397 107.674 23.542 107.345 23.832C107.016 24.122 106.852 24.6053 106.852 25.282V31.43C107.316 31.5073 107.877 31.546 108.534 31.546C109.655 31.546 110.458 31.2367 110.941 30.618C111.444 29.98 111.695 28.965 111.695 27.573ZM131.426 41.348C129.222 41.348 127.308 40.942 125.684 40.13C124.06 39.2987 122.813 38.1773 121.943 36.766C121.073 35.3547 120.638 33.7887 120.638 32.068C120.638 30.2313 121.121 28.588 122.088 27.138C123.074 25.688 124.427 24.5667 126.148 23.774C127.868 22.962 129.802 22.556 131.948 22.556C132.876 22.556 133.804 22.6333 134.732 22.788C135.66 22.9233 136.404 23.107 136.965 23.339C137.177 23.4163 137.293 23.484 137.313 23.542C137.351 23.5807 137.38 23.7353 137.4 24.006L137.777 28.037C137.777 28.095 137.719 28.1337 137.603 28.153C137.506 28.1723 137.448 28.1433 137.429 28.066C137.177 27.428 136.771 26.732 136.211 25.978C135.65 25.224 134.915 24.5667 134.007 24.006C133.098 23.4453 132.044 23.165 130.846 23.165C129.608 23.165 128.477 23.5033 127.453 24.18C126.428 24.8567 125.616 25.8233 125.017 27.08C124.437 28.3367 124.147 29.7963 124.147 31.459C124.147 33.2763 124.485 34.9003 125.162 36.331C125.858 37.7617 126.815 38.8733 128.033 39.666C129.251 40.4587 130.623 40.855 132.151 40.855C132.943 40.855 133.552 40.768 133.978 40.594C134.403 40.42 134.712 40.0817 134.906 39.579C135.099 39.0763 135.196 38.332 135.196 37.346C135.196 36.3407 135.138 35.6447 135.022 35.258C134.906 34.852 134.654 34.5813 134.268 34.446C133.9 34.3107 133.243 34.243 132.296 34.243C132.18 34.243 132.122 34.1657 132.122 34.011C132.122 33.953 132.131 33.9047 132.151 33.866C132.189 33.808 132.228 33.779 132.267 33.779C133.91 33.8757 135.244 33.924 136.269 33.924C137.255 33.924 138.279 33.895 139.343 33.837C139.42 33.837 139.459 33.9047 139.459 34.04C139.478 34.1753 139.439 34.243 139.343 34.243C138.995 34.2237 138.743 34.2913 138.589 34.446C138.453 34.5813 138.366 34.8713 138.328 35.316C138.289 35.7607 138.27 36.534 138.27 37.636C138.27 38.506 138.299 39.1247 138.357 39.492C138.434 39.8593 138.473 40.0913 138.473 40.188C138.473 40.304 138.453 40.3813 138.415 40.42C138.376 40.4587 138.289 40.4973 138.154 40.536C135.66 41.0773 133.417 41.348 131.426 41.348ZM153.218 26.877C153.74 26.007 154.001 25.2627 154.001 24.644C154.001 24.18 153.856 23.832 153.566 23.6C153.295 23.3487 152.899 23.223 152.377 23.223C152.319 23.223 152.29 23.165 152.29 23.049C152.29 22.933 152.319 22.875 152.377 22.875L153.914 22.904C154.803 22.9427 155.596 22.962 156.292 22.962C156.62 22.962 157.017 22.9427 157.481 22.904L158.554 22.875C158.592 22.875 158.612 22.933 158.612 23.049C158.612 23.165 158.592 23.223 158.554 23.223C157.954 23.223 157.22 23.6 156.35 24.354C155.48 25.0887 154.706 26.0167 154.03 27.138L150.26 33.431L149.651 32.938L153.218 26.877ZM143.561 26.21C142.845 25.0887 142.246 24.3153 141.763 23.89C141.299 23.4453 140.902 23.223 140.574 23.223C140.516 23.223 140.487 23.165 140.487 23.049C140.487 22.933 140.516 22.875 140.574 22.875L141.473 22.904C141.898 22.9427 142.198 22.962 142.372 22.962C143.048 22.962 144.025 22.9427 145.301 22.904L147.215 22.875C147.253 22.875 147.273 22.933 147.273 23.049C147.273 23.165 147.253 23.223 147.215 23.223C146.886 23.223 146.625 23.3003 146.432 23.455C146.258 23.6097 146.171 23.8127 146.171 24.064C146.171 24.3733 146.306 24.7407 146.577 25.166L150.753 31.749L147.969 33.054L143.561 26.21ZM151.014 31.749V38.651C151.014 39.2503 151.062 39.6853 151.159 39.956C151.255 40.2267 151.439 40.4103 151.71 40.507C152 40.6037 152.454 40.652 153.073 40.652C153.131 40.652 153.16 40.71 153.16 40.826C153.16 40.942 153.131 41 153.073 41C152.435 41 151.932 40.9903 151.565 40.971L149.39 40.942L147.244 40.971C146.857 40.9903 146.335 41 145.678 41C145.639 41 145.62 40.942 145.62 40.826C145.62 40.71 145.639 40.652 145.678 40.652C146.296 40.652 146.751 40.6037 147.041 40.507C147.331 40.4103 147.524 40.2267 147.621 39.956C147.737 39.666 147.795 39.231 147.795 38.651V32.01L151.014 31.749ZM52.046 47.804C52.046 48.5 52.22 49.1187 52.568 49.66C52.9353 50.2013 53.38 50.675 53.902 51.081C54.424 51.487 55.1297 51.98 56.019 52.56C56.9857 53.1787 57.759 53.72 58.339 54.184C58.919 54.648 59.412 55.2183 59.818 55.895C60.224 56.5523 60.427 57.316 60.427 58.186C60.427 59.1913 60.1563 60.0903 59.615 60.883C59.0737 61.6563 58.3197 62.2653 57.353 62.71C56.4057 63.1353 55.3423 63.348 54.163 63.348C53.3123 63.348 52.4037 63.232 51.437 63C50.4897 62.7487 49.8517 62.478 49.523 62.188C49.4263 62.1107 49.349 62.043 49.291 61.985C49.2523 61.9077 49.233 61.7917 49.233 61.637L49.146 57.026V56.997C49.146 56.9197 49.1943 56.881 49.291 56.881C49.3877 56.8617 49.4457 56.8907 49.465 56.968C50.045 58.1473 50.5477 59.1043 50.973 59.839C51.4177 60.5737 51.9687 61.2213 52.626 61.782C53.3027 62.3427 54.0663 62.623 54.917 62.623C55.6903 62.623 56.3283 62.42 56.831 62.014C57.3337 61.5887 57.585 60.8733 57.585 59.868C57.585 59.0173 57.3917 58.273 57.005 57.635C56.6377 56.997 56.1833 56.4557 55.642 56.011C55.1007 55.5663 54.3563 55.0347 53.409 54.416C52.481 53.8167 51.756 53.3043 51.234 52.879C50.7313 52.4537 50.2963 51.9413 49.929 51.342C49.5617 50.7427 49.378 50.037 49.378 49.225C49.378 48.2003 49.668 47.34 50.248 46.644C50.8473 45.9287 51.611 45.4067 52.539 45.078C53.467 44.73 54.4433 44.556 55.468 44.556C56.1447 44.556 56.831 44.6237 57.527 44.759C58.223 44.875 58.7837 45.02 59.209 45.194C59.383 45.2713 59.499 45.3583 59.557 45.455C59.615 45.5323 59.644 45.6387 59.644 45.774V50.037C59.644 50.095 59.5957 50.1433 59.499 50.182C59.4023 50.2013 59.3443 50.182 59.325 50.124L59.093 49.573C58.6097 48.355 58.0393 47.3207 57.382 46.47C56.744 45.6193 55.845 45.194 54.685 45.194C53.9117 45.194 53.2737 45.4163 52.771 45.861C52.2877 46.3057 52.046 46.9533 52.046 47.804ZM68.3628 45.542C66.0621 45.542 64.4091 47.0403 63.4038 50.037C63.3845 50.095 63.3265 50.124 63.2298 50.124C63.1331 50.1047 63.0848 50.066 63.0848 50.008C63.1621 49.2347 63.2491 48.239 63.3458 47.021C63.4425 45.7837 63.4908 44.8557 63.4908 44.237C63.4908 44.1403 63.5391 44.092 63.6358 44.092C63.7518 44.092 63.8098 44.1403 63.8098 44.237C63.8098 44.6623 64.3608 44.875 65.4628 44.875C67.1255 44.933 69.0685 44.962 71.2918 44.962C72.4325 44.962 73.6408 44.9427 74.9168 44.904L76.8888 44.875C77.6235 44.875 78.1551 44.8267 78.4838 44.73C78.8318 44.6333 79.0541 44.44 79.1508 44.15C79.1701 44.0727 79.2281 44.034 79.3248 44.034C79.4408 44.034 79.4988 44.0727 79.4988 44.15C79.4408 44.73 79.3731 45.658 79.2958 46.934C79.2378 48.21 79.2088 49.2347 79.2088 50.008C79.2088 50.066 79.1605 50.095 79.0638 50.095C78.9671 50.095 78.9091 50.066 78.8898 50.008C78.5998 48.5193 78.0585 47.4077 77.2658 46.673C76.4731 45.919 75.4968 45.542 74.3368 45.542C73.7761 45.542 73.3991 45.6677 73.2058 45.919C73.0318 46.151 72.9448 46.6053 72.9448 47.282V60.651C72.9448 61.2503 73.0028 61.6853 73.1188 61.956C73.2348 62.2267 73.4571 62.4103 73.7858 62.507C74.1145 62.6037 74.6365 62.652 75.3518 62.652C75.4098 62.652 75.4388 62.71 75.4388 62.826C75.4388 62.942 75.4098 63 75.3518 63C74.6558 63 74.1048 62.9903 73.6988 62.971L71.2918 62.942L68.9428 62.971C68.5368 62.9903 67.9761 63 67.2608 63C67.2028 63 67.1738 62.942 67.1738 62.826C67.1738 62.71 67.2028 62.652 67.2608 62.652C67.9568 62.652 68.4691 62.6037 68.7978 62.507C69.1458 62.4103 69.3778 62.2267 69.4938 61.956C69.6291 61.666 69.6968 61.231 69.6968 60.651V47.224C69.6968 46.5667 69.6098 46.122 69.4358 45.89C69.2618 45.658 68.9041 45.542 68.3628 45.542ZM90.6638 63.348C88.8658 63.348 87.2611 62.9323 85.8498 62.101C84.4578 61.2503 83.3751 60.1097 82.6018 58.679C81.8478 57.229 81.4708 55.6533 81.4708 53.952C81.4708 51.9607 81.9735 50.2593 82.9788 48.848C83.9841 47.4173 85.2698 46.3443 86.8358 45.629C88.4211 44.9137 90.0355 44.556 91.6788 44.556C93.5155 44.556 95.1298 44.991 96.5218 45.861C97.9138 46.7117 98.9771 47.8427 99.7118 49.254C100.466 50.6653 100.843 52.1637 100.843 53.749C100.843 55.5083 100.379 57.1227 99.4508 58.592C98.5228 60.0613 97.2758 61.2213 95.7098 62.072C94.1631 62.9227 92.4811 63.348 90.6638 63.348ZM91.6208 62.623C92.7035 62.623 93.6701 62.3137 94.5208 61.695C95.3908 61.057 96.0675 60.1387 96.5508 58.94C97.0341 57.722 97.2758 56.272 97.2758 54.59C97.2758 52.8113 97.0051 51.226 96.4638 49.834C95.9225 48.4227 95.1395 47.3207 94.1148 46.528C93.0901 45.7353 91.8915 45.339 90.5188 45.339C88.7595 45.339 87.4061 46.006 86.4588 47.34C85.5115 48.6547 85.0378 50.501 85.0378 52.879C85.0378 54.7543 85.3181 56.4363 85.8788 57.925C86.4588 59.3943 87.2418 60.5447 88.2278 61.376C89.2331 62.2073 90.3641 62.623 91.6208 62.623ZM117.623 63C117.178 63 116.357 62.1977 115.158 60.593C113.959 58.969 112.509 56.7167 110.808 53.836L113.476 53.024C115.081 55.46 116.415 57.3643 117.478 58.737C118.561 60.1097 119.518 61.1053 120.349 61.724C121.18 62.3427 121.992 62.652 122.785 62.652C122.824 62.652 122.843 62.71 122.843 62.826C122.843 62.942 122.824 63 122.785 63H117.623ZM111.388 44.788C113.147 44.788 114.51 45.1167 115.477 45.774C116.444 46.412 116.927 47.311 116.927 48.471C116.927 49.573 116.608 50.5687 115.97 51.458C115.351 52.3473 114.539 53.0433 113.534 53.546C112.529 54.0293 111.475 54.271 110.373 54.271C109.619 54.271 109.087 54.2613 108.778 54.242V60.651C108.778 61.2503 108.826 61.6853 108.923 61.956C109.02 62.2267 109.203 62.4103 109.474 62.507C109.764 62.6037 110.218 62.652 110.837 62.652C110.876 62.652 110.895 62.71 110.895 62.826C110.895 62.942 110.876 63 110.837 63C110.199 63 109.696 62.9903 109.329 62.971L107.125 62.942L105.008 62.971C104.621 62.9903 104.099 63 103.442 63C103.384 63 103.355 62.942 103.355 62.826C103.355 62.71 103.384 62.652 103.442 62.652C104.061 62.652 104.505 62.6037 104.776 62.507C105.066 62.4103 105.259 62.2267 105.356 61.956C105.472 61.666 105.53 61.231 105.53 60.651V47.224C105.53 46.644 105.482 46.2187 105.385 45.948C105.288 45.6773 105.095 45.4937 104.805 45.397C104.515 45.281 104.07 45.223 103.471 45.223C103.432 45.223 103.413 45.165 103.413 45.049C103.413 44.933 103.432 44.875 103.471 44.875L105.008 44.904C105.897 44.9427 106.603 44.962 107.125 44.962C107.782 44.962 108.469 44.933 109.184 44.875C109.435 44.8557 109.745 44.8363 110.112 44.817C110.499 44.7977 110.924 44.788 111.388 44.788ZM113.621 49.573C113.621 47.9877 113.389 46.8953 112.925 46.296C112.461 45.6967 111.794 45.397 110.924 45.397C110.151 45.397 109.6 45.542 109.271 45.832C108.942 46.122 108.778 46.6053 108.778 47.282V53.43C109.242 53.5073 109.803 53.546 110.46 53.546C111.581 53.546 112.384 53.2367 112.867 52.618C113.37 51.98 113.621 50.965 113.621 49.573ZM127.896 55.547H136.248L136.451 56.359H127.461L127.896 55.547ZM143.295 62.652C143.392 62.652 143.44 62.71 143.44 62.826C143.44 62.942 143.392 63 143.295 63C142.908 63 142.309 62.9807 141.497 62.942C140.646 62.9033 140.037 62.884 139.67 62.884C139.187 62.884 138.597 62.9033 137.901 62.942C137.244 62.9807 136.722 63 136.335 63C136.258 63 136.219 62.942 136.219 62.826C136.219 62.71 136.258 62.652 136.335 62.652C136.838 62.652 137.195 62.6037 137.408 62.507C137.64 62.391 137.756 62.1977 137.756 61.927C137.756 61.5983 137.563 61.0473 137.176 60.274L131.289 48.645L132.71 46.151L126.939 58.882C126.688 59.4427 126.562 59.9647 126.562 60.448C126.562 61.144 126.804 61.6853 127.287 62.072C127.79 62.4587 128.457 62.652 129.288 62.652C129.385 62.652 129.433 62.71 129.433 62.826C129.433 62.942 129.385 63 129.288 63C128.94 63 128.437 62.9807 127.78 62.942C127.045 62.9033 126.407 62.884 125.866 62.884C125.344 62.884 124.716 62.9033 123.981 62.942C123.324 62.9807 122.792 63 122.386 63C122.309 63 122.27 62.942 122.27 62.826C122.27 62.71 122.309 62.652 122.386 62.652C122.927 62.652 123.382 62.5457 123.749 62.333C124.116 62.101 124.484 61.7047 124.851 61.144C125.218 60.564 125.653 59.7133 126.156 58.592L132.449 44.759C132.488 44.701 132.575 44.672 132.71 44.672C132.865 44.672 132.952 44.701 132.971 44.759L140.221 59.027C140.898 60.3997 141.458 61.347 141.903 61.869C142.348 62.391 142.812 62.652 143.295 62.652ZM155.13 63.348C152.926 63.348 151.012 62.942 149.388 62.13C147.764 61.2987 146.517 60.1773 145.647 58.766C144.777 57.3547 144.342 55.7887 144.342 54.068C144.342 52.2313 144.825 50.588 145.792 49.138C146.778 47.688 148.131 46.5667 149.852 45.774C151.573 44.962 153.506 44.556 155.652 44.556C156.58 44.556 157.508 44.6333 158.436 44.788C159.364 44.9233 160.108 45.107 160.669 45.339C160.882 45.4163 160.998 45.484 161.017 45.542C161.056 45.5807 161.085 45.7353 161.104 46.006L161.481 50.037C161.481 50.095 161.423 50.1337 161.307 50.153C161.21 50.1723 161.152 50.1433 161.133 50.066C160.882 49.428 160.476 48.732 159.915 47.978C159.354 47.224 158.62 46.5667 157.711 46.006C156.802 45.4453 155.749 45.165 154.55 45.165C153.313 45.165 152.182 45.5033 151.157 46.18C150.132 46.8567 149.32 47.8233 148.721 49.08C148.141 50.3367 147.851 51.7963 147.851 53.459C147.851 55.2763 148.189 56.9003 148.866 58.331C149.562 59.7617 150.519 60.8733 151.737 61.666C152.955 62.4587 154.328 62.855 155.855 62.855C156.648 62.855 157.257 62.768 157.682 62.594C158.107 62.42 158.417 62.0817 158.61 61.579C158.803 61.0763 158.9 60.332 158.9 59.346C158.9 58.3407 158.842 57.6447 158.726 57.258C158.61 56.852 158.359 56.5813 157.972 56.446C157.605 56.3107 156.947 56.243 156 56.243C155.884 56.243 155.826 56.1657 155.826 56.011C155.826 55.953 155.836 55.9047 155.855 55.866C155.894 55.808 155.932 55.779 155.971 55.779C157.614 55.8757 158.948 55.924 159.973 55.924C160.959 55.924 161.984 55.895 163.047 55.837C163.124 55.837 163.163 55.9047 163.163 56.04C163.182 56.1753 163.144 56.243 163.047 56.243C162.699 56.2237 162.448 56.2913 162.293 56.446C162.158 56.5813 162.071 56.8713 162.032 57.316C161.993 57.7607 161.974 58.534 161.974 59.636C161.974 60.506 162.003 61.1247 162.061 61.492C162.138 61.8593 162.177 62.0913 162.177 62.188C162.177 62.304 162.158 62.3813 162.119 62.42C162.08 62.4587 161.993 62.4973 161.858 62.536C159.364 63.0773 157.121 63.348 155.13 63.348ZM165.322 63C165.264 63 165.235 62.942 165.235 62.826C165.235 62.71 165.264 62.652 165.322 62.652C165.94 62.652 166.385 62.6037 166.656 62.507C166.946 62.4103 167.139 62.2267 167.236 61.956C167.332 61.666 167.381 61.231 167.381 60.651V47.224C167.381 46.644 167.332 46.2187 167.236 45.948C167.139 45.6773 166.946 45.4937 166.656 45.397C166.366 45.281 165.921 45.223 165.322 45.223C165.264 45.223 165.235 45.165 165.235 45.049C165.235 44.933 165.264 44.875 165.322 44.875H177.618C177.811 44.875 177.908 44.962 177.908 45.136L177.966 48.993C177.966 49.0317 177.908 49.0607 177.792 49.08C177.695 49.0993 177.637 49.08 177.618 49.022C177.308 47.9007 176.786 47.0693 176.052 46.528C175.317 45.9867 174.35 45.716 173.152 45.716H172.282C171.702 45.716 171.276 45.8417 171.006 46.093C170.735 46.3443 170.6 46.731 170.6 47.253V60.535C170.6 61.0957 170.706 61.5113 170.919 61.782C171.131 62.0527 171.47 62.188 171.934 62.188H172.891C174.399 62.188 175.607 61.8787 176.516 61.26C177.424 60.6413 178.091 59.6843 178.517 58.389C178.517 58.3503 178.555 58.331 178.633 58.331C178.691 58.331 178.739 58.3503 178.778 58.389C178.836 58.4083 178.865 58.4277 178.865 58.447C178.671 59.955 178.575 61.3277 178.575 62.565C178.575 62.7197 178.546 62.8357 178.488 62.913C178.43 62.971 178.314 63 178.14 63H165.322ZM176.516 56.533C176.516 55.7403 176.206 55.1217 175.588 54.677C174.988 54.213 174.118 53.981 172.978 53.981H169.063V53.169H173.007C174.128 53.169 174.988 52.9757 175.588 52.589C176.187 52.2023 176.487 51.661 176.487 50.965C176.487 50.907 176.535 50.878 176.632 50.878C176.748 50.878 176.806 50.907 176.806 50.965L176.777 53.575L176.806 54.967C176.844 55.6243 176.864 56.1463 176.864 56.533C176.864 56.5717 176.806 56.591 176.69 56.591C176.574 56.591 176.516 56.5717 176.516 56.533Z" fill="black"/>
<path d="M5.47252 2L2.02765 10.5234H38.1988L34.7539 2H5.47252ZM2.12238 13.6397V66.3603H38.1041V13.6397H2.12238ZM2.02765 69.4766L5.47252 78H34.7539L38.1988 69.4766H2.02765Z" fill="black" stroke="black" stroke-width="2.052"/>
<path d="M19.4595 28.9329C19.789 28.1755 19.9539 27.7968 20.1834 27.6802C20.3827 27.5788 20.6167 27.5788 20.816 27.6802C21.0455 27.7968 21.2104 28.1755 21.5399 28.9329L24.1651 34.966C24.2626 35.1899 24.3113 35.3018 24.3867 35.3876C24.4534 35.4634 24.5349 35.5241 24.6259 35.5656C24.7288 35.6126 24.8478 35.6255 25.0859 35.6512L31.4982 36.3445C32.3033 36.4315 32.7057 36.475 32.885 36.6626C33.0406 36.8254 33.1129 37.0535 33.0804 37.279C33.0431 37.5386 32.7425 37.8161 32.1411 38.3713L27.3511 42.7933C27.1735 42.9574 27.0845 43.0395 27.0282 43.1394C26.9784 43.2279 26.9472 43.326 26.9368 43.4275C26.925 43.5423 26.9498 43.6622 26.9995 43.9021L28.3374 50.3635C28.5054 51.1748 28.5894 51.5803 28.4706 51.8128C28.3674 52.0149 28.1781 52.1558 27.9587 52.1939C27.7062 52.2376 27.3555 52.0305 26.6543 51.6162L21.0687 48.316C20.8614 48.1935 20.7578 48.1324 20.6476 48.1083C20.5501 48.0872 20.4493 48.0872 20.3518 48.1083C20.2416 48.1324 20.138 48.1935 19.9307 48.316L14.3452 51.6162C13.6439 52.0305 13.2933 52.2376 13.0407 52.1939C12.8214 52.1558 12.632 52.0149 12.5288 51.8128C12.4101 51.5803 12.4941 51.1748 12.6621 50.3635L13.9999 43.9021C14.0496 43.6622 14.0744 43.5423 14.0626 43.4275C14.0522 43.326 14.021 43.2279 13.9712 43.1394C13.9149 43.0395 13.826 42.9574 13.6483 42.7933L8.85835 38.3713C8.257 37.8161 7.95632 37.5386 7.91894 37.279C7.88648 37.0535 7.95881 36.8254 8.11447 36.6626C8.29368 36.475 8.6962 36.4315 9.50125 36.3445L15.9136 35.6512C16.1516 35.6255 16.2706 35.6126 16.3735 35.5656C16.4645 35.5241 16.546 35.4634 16.6128 35.3876C16.6881 35.3018 16.7369 35.1899 16.8343 34.966L19.4595 28.9329Z" stroke="white" stroke-width="1.78833" stroke-linecap="round" stroke-linejoin="round"/>
<path d="M17.4596 44.6934C17.4596 43.8409 17.4596 42.9885 17.4596 42.136C17.4596 41.7276 17.6374 40.7701 17.4056 40.3898C17.25 40.1345 17.4219 39.934 17.5675 39.6913C18.1074 38.7909 18.6702 37.8975 19.3047 37.0664C19.749 36.4842 20.7749 35.6929 20.9394 34.9202C20.9906 34.6798 21.0519 33.8013 20.8153 33.6641C20.3424 33.3898 19.8825 34.2437 19.6338 34.5034C18.838 35.3343 18.4743 36.3501 17.9667 37.4043C17.6955 37.9676 17.3875 38.5153 17.1359 39.0886C17.0047 39.3873 17.3203 39.3447 17.5405 39.3702C18.7193 39.507 20.3872 39.5359 21.4951 39.0154C22.398 38.5911 20.8145 37.4991 20.5563 37.3536C18.1586 36.0031 17.0491 39.0688 18.1178 41.0319C19.1302 42.8918 22.1126 41.1978 22.5633 39.6293C22.7717 38.9039 22.1693 38.3414 21.5166 38.238C20.2489 38.0372 19.6852 39.4583 19.7147 40.5475C19.7341 41.2652 20.0257 41.9491 20.8207 41.8769C21.626 41.8038 23.3266 41.0605 23.734 40.2546C24.0117 39.7052 21.8217 39.8802 21.6893 39.8941C20.5144 40.0172 19.008 40.3879 18.6357 41.753C18.1816 43.4176 20.5682 44.1367 21.7271 43.5893C22.3606 43.2901 22.6596 42.1081 22.1694 41.5614C21.3003 40.5921 20.6532 42.4271 20.5509 43.0429C20.2363 44.9367 21.4146 44.3251 22.6064 44.6145C23.5268 44.838 23.5164 45.5922 24.0092 46.2537C24.1716 46.4717 24.2756 46.6034 24.5487 46.6198C24.5996 46.6229 25.2038 46.7145 25.2069 46.6987C25.2937 46.2454 24.4515 45.1167 24.2573 44.7497C23.6822 43.6626 22.8627 42.5096 22.655 41.2629C22.3229 39.2693 24.9261 38.77 26.329 38.6323C26.529 38.6127 27.674 38.4221 27.516 38.4126C26.3292 38.3418 25.1218 38.407 23.9336 38.407C23.129 38.407 22.321 38.4268 21.5166 38.3957C21.141 38.3812 20.6792 38.3917 20.4161 38.0465C19.5009 36.846 19.8927 34.6315 20.1193 33.2641C20.1499 33.0799 20.2407 32.7206 20.1787 32.5262C20.1358 32.3918 20.0139 32.7554 19.9629 32.8867C19.711 33.5347 19.5716 34.2181 19.4018 34.8921C19.0046 36.468 18.4896 38.9902 16.4992 38.8013C15.385 38.6956 12.1371 37.8774 13.1759 38.3112C13.6636 38.5149 14.203 38.6073 14.6973 38.8126C15.2836 39.056 15.8093 39.4455 16.3913 39.68C17.3413 40.0629 17.4283 40.878 17.3031 41.8656C17.1268 43.2561 16.7798 44.6025 16.7798 46.0115" stroke="white" stroke-width="3" stroke-linecap="round"/>
<path d="M14.0607 40.0293C13.2945 40.0293 12.965 39.8927 12.3667 39.3815C12.0879 39.1434 11.9093 38.888 11.5412 38.6718C11.0097 38.3596 10.5075 37.9765 9.88492 37.9C9.69443 37.8766 9.45748 37.6821 9.26449 37.6015C8.84672 37.427 10.1933 37.7138 10.6133 37.5452C11.2934 37.272 10.0689 37.3931 9.78781 37.3931C9.52801 37.3931 9.3267 37.4058 9.10803 37.2917" stroke="white" stroke-width="2" stroke-linecap="round"/>
<path d="M10.856 37.0889C11.8928 37.0889 13.155 37.3014 14.1632 37.0382C14.7231 36.8921 15.3333 36.8447 15.9058 36.7904C16.2288 36.7597 17.2545 36.871 16.974 36.4805" stroke="white" stroke-width="2" stroke-linecap="round"/>
<path d="M16.5856 37.9C16.5537 37.9 16.3554 37.9026 16.4183 37.8888C17.0195 37.7566 17.6274 37.7444 18.2365 37.6973" stroke="white" stroke-width="2" stroke-linecap="round"/>
<path d="M17.6538 35.8722C17.6538 35.2118 17.5867 34.5387 17.902 33.9401C18.2737 33.2344 18.7452 32.5966 19.0134 31.839C19.1344 31.4971 19.1211 31.1184 19.2508 30.78C19.3777 30.4487 19.6278 30.2156 19.8388 29.9463C20.0519 29.6744 20.0772 29.3967 20.1787 29.0789" stroke="white" stroke-width="2" stroke-linecap="round"/>
<path d="M20.1787 29.0789C20.2382 29.7003 20.8091 30.4159 21.0527 30.9828C21.4059 31.8047 21.9977 32.3702 22.504 33.0839C22.8552 33.579 23.2511 34.0028 23.4265 34.6048C23.575 35.1142 23.7637 35.5821 23.966 36.075" stroke="white" stroke-width="2" stroke-linecap="round"/>
<path d="M23.966 36.075C24.895 36.075 25.8028 36.0097 26.6905 36.3341C27.3488 36.5746 28.0429 36.5716 28.7245 36.7059C29.4356 36.8459 29.9724 37.0889 30.7098 37.0889C30.8289 37.0889 31.809 37.2143 31.6378 37.3931" stroke="white" stroke-width="2" stroke-linecap="round"/>
<path d="M31.6378 37.3931C30.8686 37.3931 30.5303 37.5417 29.8898 38.0014C29.193 38.5016 28.5352 39.168 28.0015 39.849C27.2568 40.7993 26.2703 41.5408 25.6169 42.5641" stroke="white" stroke-width="2" stroke-linecap="round"/>
<path d="M25.6169 42.5641C26.8805 42.5641 27.6813 41.07 28.5788 40.2771C29.1392 39.782 29.7155 39.2537 30.2351 38.7112C30.5126 38.4214 30.7249 37.998 31.0497 37.7648C31.1818 37.67 31.2777 37.7394 31.3464 37.5959" stroke="white" stroke-width="2" stroke-linecap="round"/>
<path d="M25.7141 43.2739C25.7141 42.6875 25.7597 44.4655 25.9568 45.0144C26.3349 46.067 26.583 47.1817 26.9549 48.2421C27.1598 48.8262 27.4621 49.6968 27.4621 50.315C27.4621 50.5857 27.9347 50.8783 27.4621 50.8783" stroke="white" stroke-width="2" stroke-linecap="round"/>
<path d="M27.462 50.8783C26.1159 50.3918 25.5623 48.9228 24.3113 48.2421C23.6634 47.8896 23.0391 47.3144 22.3205 47.1268C21.8664 47.0082 21.5608 46.6198 21.0527 46.6198" stroke="white" stroke-width="2" stroke-linecap="round"/>
<path d="M21.0527 46.5184C21.8529 46.5944 22.6997 47.2128 23.2431 47.7802C23.6599 48.2154 24.0694 49.2068 24.6944 49.3518C25.2344 49.4771 23.7415 48.7583 23.3078 48.3998C22.9304 48.0879 22.4586 47.431 21.9267 47.431C21.3098 47.431 20.9408 46.9189 20.3729 46.7212" stroke="white" stroke-width="2" stroke-linecap="round"/>
<path d="M20.3729 46.7212C20.3474 46.9345 19.6108 46.8181 19.4773 46.8226C18.9017 46.842 18.3576 47.2498 17.8966 47.5831C17.2126 48.0775 16.5515 48.5737 15.8087 48.9744C15.3947 49.1977 14.4712 49.6097 14.2549 50.1179C14.1878 50.2756 13.298 50.8925 13.2676 50.7657C13.2483 50.6852 16.1932 49.1131 16.4885 48.9293C17.1677 48.5066 17.7325 47.9895 18.4792 47.6845C18.7663 47.5672 19.3343 47.5101 19.4018 47.2282" stroke="white" stroke-width="2" stroke-linecap="round"/>
<path d="M13.478 49.5602C13.478 48.3484 13.4061 47.1254 13.7693 45.9551C14.0802 44.9534 14.3711 44.0085 14.5948 42.9809C14.7864 42.1006 14.1178 41.8876 13.5643 41.3418C13.0774 40.8616 12.5525 40.2326 11.9997 39.8265C11.8098 39.6869 11.6522 39.5425 11.4872 39.3702C11.0667 38.9312 11.8542 39.2833 12.0321 39.3421C13.612 39.8642 15.1756 40.2869 16.6935 41.0038C16.9277 41.1144 17.5569 41.2805 17.6861 41.5952C17.6936 41.6135 15.7166 41.5768 15.5065 41.5502C15.0494 41.4922 14.7693 41.481 14.8375 40.9644C14.8991 40.4986 15.9869 39.9351 16.305 39.7307C17.8489 38.7388 19.2675 37.8181 20.5455 36.4355C21.1487 35.7829 21.3715 35.5242 21.4897 34.7343C21.6684 33.54 20.3306 32.8159 20.2758 31.6137C20.2642 31.3592 20.1756 31.3454 20.2002 31.6925C20.3084 33.2165 21.1173 34.587 21.9051 35.8271C22.4629 36.7051 23.0652 37.5891 23.4157 38.5873C23.4669 38.7332 23.5771 39.8032 23.3671 39.7758C22.7318 39.6929 22.8998 37.2787 22.8978 36.8748C22.8944 36.1873 22.8473 35.6489 22.709 34.9991C22.6749 34.8391 22.6305 34.1099 22.4122 34.0696C22.1059 34.0132 22.3302 34.7142 22.3151 35.0385C22.2391 36.6754 21.8529 38.2784 21.1714 39.7589C20.3724 41.4945 19.0691 43.2335 17.384 44.1132C17.1141 44.2541 16.4255 44.5699 16.1054 44.361C15.6551 44.0672 16.0652 42.7023 16.1539 42.2937C16.3216 41.5216 15.754 42.7397 15.7116 42.8795C15.2533 44.3899 15.3789 45.8493 14.6217 47.2507C14.2467 47.9449 13.7653 49.2334 15.0426 48.3266C15.9425 47.6877 16.4268 46.7679 16.974 45.8199C17.3273 45.2079 18.0228 44.7768 18.6087 44.4624C19.321 44.0802 19.6952 43.9929 19.0241 44.7609C18.4775 45.3865 16.7472 47.1312 17.438 46.6874C17.8858 46.3997 20.1252 44.9863 20.5995 45.7749C20.8526 46.1958 20.4901 46.53 20.1463 46.6592C19.2095 47.0114 21.8385 45.5413 22.7629 45.1553C24.0672 44.6105 24.2746 46.398 25.1313 47.1043C25.6917 47.5661 26.1897 48.4252 26.4315 49.1321C26.4559 49.2034 26.2981 49.0682 26.2427 49.0194C25.6908 48.5335 25.1142 48.0901 24.4947 47.7013C23.7306 47.2218 22.9288 46.698 22.1317 46.2818C21.7646 46.0902 21.4721 46.3271 21.7756 45.6735C22.5961 43.9066 23.94 42.4732 24.9911 40.863C25.2395 40.4823 25.5522 40.1164 25.6277 39.6631C25.6687 39.4168 25.9439 38.8607 25.509 39.3984C24.6262 40.4899 24.0501 42.3537 24.3598 43.809C24.3748 43.8792 24.4646 43.7103 24.4947 43.6456C24.7769 43.0405 24.9822 42.3966 25.2284 41.7755C25.5868 40.8716 26.0437 39.7917 26.7822 39.1393C27.1074 38.852 29.0158 38.7449 29.0158 38.2042C29.0158 36.9181 26.7818 37.1903 26.0863 37.1903C24.8945 37.1903 23.7815 37.1409 22.6064 36.9875" stroke="white" stroke-width="2" stroke-linecap="round"/>
<rect x="1.54718" y="24.9378" width="12.3774" height="0.807692" rx="0.403846" fill="white"/>
<rect x="1.54718" y="24.9378" width="12.3774" height="0.807692" rx="0.403846" fill="white"/>
<rect x="1.54718" y="28.9763" width="7.73585" height="0.807692" rx="0.403846" fill="white"/>
<rect x="3" y="5" width="33" height="1" rx="0.5" fill="#D41E00"/>
<rect x="2" y="62" width="9" height="1" rx="0.5" fill="white"/>
</svg>
