<?xml version="1.0" encoding="UTF-8"?>
<svg xmlns="http://www.w3.org/2000/svg" xmlns:xlink="http://www.w3.org/1999/xlink" width="187px" height="140px" viewBox="0 0 187 140" version="1.1">
<g id="surface1">
<path style="fill-rule:nonzero;fill:rgb(0%,0%,0%);fill-opacity:1;stroke-width:2.1;stroke-linecap:butt;stroke-linejoin:miter;stroke:rgb(0%,0%,0%);stroke-opacity:1;stroke-miterlimit:4;" d="M 5.5 2 L 2 10.5 L 38.199219 10.5 L 34.800781 2 Z M 2.101562 13.601562 L 2.101562 66.398438 L 38.101562 66.398438 L 38.101562 13.601562 Z M 2 69.5 L 5.398438 78 L 34.699219 78 L 38.199219 69.5 Z M 2 69.5 "/>
<path style="fill-rule:nonzero;fill:rgb(0%,0%,0%);fill-opacity:1;stroke-width:2.1;stroke-linecap:butt;stroke-linejoin:miter;stroke:rgb(0%,0%,0%);stroke-opacity:1;stroke-miterlimit:4;" d="M 5.5 2 L 2 10.5 L 38.199219 10.5 L 34.800781 2 Z M 2.101562 13.601562 L 2.101562 66.398438 L 38.101562 66.398438 L 38.101562 13.601562 Z M 2 69.5 L 5.398438 78 L 34.699219 78 L 38.199219 69.5 Z M 2 69.5 "/>
<path style="fill:none;stroke-width:2;stroke-linecap:round;stroke-linejoin:miter;stroke:rgb(100%,100%,100%);stroke-opacity:1;stroke-miterlimit:4;" d="M 13.5 49.601562 C 13.5 48.300781 13.398438 47.101562 13.800781 46 C 14.101562 45 14.398438 44 14.601562 43 C 14.800781 42.101562 14.101562 41.898438 13.601562 41.300781 C 13.101562 40.898438 12.601562 40.199219 12 39.800781 C 11.800781 39.667969 11.632812 39.535156 11.5 39.398438 C 11.101562 38.898438 11.898438 39.300781 12 39.300781 C 13.601562 39.898438 15.199219 40.300781 16.699219 41 C 16.898438 41.101562 17.601562 41.300781 17.699219 41.601562 C 17.699219 41.601562 15.699219 41.601562 15.5 41.601562 C 15 41.5 14.800781 41.5 14.800781 41 C 14.898438 40.5 16 39.898438 16.300781 39.699219 C 17.800781 38.699219 19.300781 37.800781 20.5 36.398438 C 21.101562 35.800781 21.398438 35.5 21.5 34.699219 C 21.699219 33.5 20.300781 32.800781 20.300781 31.601562 C 20.300781 31.398438 20.199219 31.300781 20.199219 31.699219 C 20.300781 33.199219 21.101562 34.601562 21.898438 35.800781 C 22.5 36.699219 23.101562 37.601562 23.398438 38.601562 C 23.5 38.699219 23.601562 39.800781 23.398438 39.800781 C 22.699219 39.699219 22.898438 37.300781 22.898438 36.898438 C 22.898438 36.199219 22.800781 35.601562 22.699219 35 C 22.699219 34.800781 22.601562 34.101562 22.398438 34.101562 C 22.101562 34 22.300781 34.699219 22.300781 35 C 22.199219 36.699219 21.898438 38.300781 21.199219 39.800781 C 20.398438 41.5 19.101562 43.199219 17.398438 44.101562 C 17.101562 44.300781 16.398438 44.601562 16.101562 44.398438 C 15.699219 44.101562 16.101562 42.699219 16.199219 42.300781 C 16.300781 41.5 15.800781 42.699219 15.699219 42.898438 C 15.300781 44.398438 15.398438 45.800781 14.601562 47.300781 C 14.199219 47.898438 13.800781 49.199219 15 48.300781 C 15.898438 47.699219 16.398438 46.800781 17 45.800781 C 17.300781 45.199219 18 44.800781 18.601562 44.5 C 19.300781 44.101562 19.699219 44 19 44.800781 C 18.5 45.398438 16.699219 47.101562 17.398438 46.699219 C 17.898438 46.398438 20.101562 45 20.601562 45.800781 C 20.898438 46.199219 20.5 46.5 20.101562 46.699219 C 19.199219 47 21.800781 45.5 22.800781 45.199219 C 24.101562 44.601562 24.300781 46.398438 25.101562 47.101562 C 25.699219 47.601562 26.199219 48.398438 26.398438 49.101562 C 26.5 49.199219 26.300781 49.101562 26.199219 49 C 25.667969 48.535156 25.101562 48.101562 24.5 47.699219 C 23.699219 47.199219 22.898438 46.699219 22.101562 46.300781 C 21.800781 46.101562 21.5 46.300781 21.800781 45.699219 C 22.601562 43.898438 23.898438 42.5 25 40.898438 C 25.199219 40.5 25.601562 40.101562 25.601562 39.699219 C 25.699219 39.398438 25.898438 38.898438 25.5 39.398438 C 24.601562 40.5 24.101562 42.398438 24.398438 43.800781 C 24.398438 43.898438 24.5 43.699219 24.5 43.601562 C 24.800781 43 25 42.398438 25.199219 41.800781 C 25.601562 40.898438 26 39.800781 26.800781 39.101562 C 27.101562 38.898438 29 38.699219 29 38.199219 C 29 36.898438 26.800781 37.199219 26.101562 37.199219 C 24.898438 37.199219 23.800781 37.101562 22.601562 37 "/>
<path style=" stroke:none;fill-rule:evenodd;fill:rgb(100%,100%,100%);fill-opacity:1;" d="M 2.5 62 L 10.5 62 C 10.800781 62 11 62.199219 11 62.5 C 11 62.800781 10.800781 63 10.5 63 L 2.5 63 C 2.199219 63 2 62.800781 2 62.5 C 2 62.199219 2.199219 62 2.5 62 Z M 2.5 62 "/>
<path style=" stroke:none;fill-rule:nonzero;fill:rgb(0%,0%,0%);fill-opacity:1;" d="M 48.199219 41 C 48.132812 41 48.101562 40.933594 48.101562 40.800781 C 48.101562 40.734375 48.132812 40.699219 48.199219 40.699219 C 48.800781 40.699219 49.234375 40.632812 49.5 40.5 C 49.832031 40.433594 50.035156 40.265625 50.101562 40 C 50.167969 39.667969 50.199219 39.234375 50.199219 38.699219 L 50.199219 25.199219 C 50.199219 24.667969 50.167969 24.234375 50.101562 23.898438 C 50.035156 23.632812 49.832031 23.464844 49.5 23.398438 C 49.234375 23.265625 48.800781 23.199219 48.199219 23.199219 C 48.132812 23.199219 48.101562 23.132812 48.101562 23 C 48.101562 22.933594 48.132812 22.898438 48.199219 22.898438 L 60.5 22.898438 C 60.699219 22.898438 60.800781 22.964844 60.800781 23.101562 L 60.800781 27 C 60.800781 27.066406 60.765625 27.101562 60.699219 27.101562 C 60.566406 27.101562 60.5 27.066406 60.5 27 C 60.167969 25.867188 59.632812 25.035156 58.898438 24.5 C 58.167969 23.964844 57.199219 23.699219 56 23.699219 L 55.101562 23.699219 C 54.566406 23.699219 54.167969 23.832031 53.898438 24.101562 C 53.632812 24.367188 53.5 24.765625 53.5 25.300781 L 53.5 38.5 C 53.5 39.101562 53.601562 39.535156 53.800781 39.800781 C 54 40.066406 54.332031 40.199219 54.800781 40.199219 L 55.800781 40.199219 C 57.265625 40.199219 58.464844 39.898438 59.398438 39.300781 C 60.265625 38.632812 60.933594 37.667969 61.398438 36.398438 C 61.398438 36.332031 61.433594 36.300781 61.5 36.300781 C 61.566406 36.300781 61.601562 36.332031 61.601562 36.398438 C 61.667969 36.398438 61.699219 36.398438 61.699219 36.398438 C 61.5 37.933594 61.398438 39.332031 61.398438 40.601562 C 61.398438 40.734375 61.398438 40.832031 61.398438 40.898438 C 61.332031 40.964844 61.199219 41 61 41 Z M 59.398438 34.5 C 59.398438 33.699219 59.101562 33.101562 58.5 32.699219 C 57.898438 32.234375 57.035156 32 55.898438 32 L 51.898438 32 L 51.898438 31.199219 L 55.898438 31.199219 C 57.035156 31.199219 57.898438 31 58.5 30.601562 C 59.101562 30.199219 59.398438 29.667969 59.398438 29 C 59.398438 28.933594 59.433594 28.898438 59.5 28.898438 C 59.632812 28.898438 59.699219 28.933594 59.699219 29 L 59.699219 33 C 59.699219 33.667969 59.699219 34.167969 59.699219 34.5 C 59.699219 34.566406 59.667969 34.601562 59.601562 34.601562 C 59.464844 34.601562 59.398438 34.566406 59.398438 34.5 Z M 81.5 41.398438 C 81.5 41.464844 81.433594 41.535156 81.300781 41.601562 C 81.234375 41.601562 81.199219 41.566406 81.199219 41.5 L 66.898438 25.300781 C 66.234375 24.5 65.632812 23.964844 65.101562 23.699219 C 64.632812 23.367188 64.167969 23.199219 63.699219 23.199219 C 63.632812 23.199219 63.601562 23.132812 63.601562 23 C 63.601562 22.933594 63.632812 22.898438 63.699219 22.898438 L 64.898438 22.898438 C 65.167969 22.898438 65.535156 22.898438 66 22.898438 L 68.199219 22.898438 C 68.464844 22.898438 68.800781 22.898438 69.199219 22.898438 C 69.332031 22.898438 69.433594 22.933594 69.5 23 C 69.566406 23.066406 69.699219 23.234375 69.898438 23.5 C 70.234375 23.964844 70.464844 24.265625 70.601562 24.398438 L 81.300781 36.601562 Z M 66.699219 23.601562 L 67.5 23.601562 L 67.5 37.300781 C 67.5 38.367188 67.734375 39.199219 68.199219 39.800781 C 68.601562 40.398438 69.167969 40.699219 69.898438 40.699219 C 69.964844 40.699219 70 40.734375 70 40.800781 C 70 40.933594 69.964844 41 69.898438 41 C 69.367188 41 68.964844 41 68.699219 41 L 65.300781 41 C 64.964844 41 64.5 41 63.898438 41 C 63.832031 41 63.800781 40.933594 63.800781 40.800781 C 63.800781 40.734375 63.832031 40.699219 63.898438 40.699219 C 64.765625 40.699219 65.433594 40.398438 65.898438 39.800781 C 66.433594 39.199219 66.699219 38.367188 66.699219 37.300781 Z M 81.5 41.5 L 80.601562 40.699219 L 80.601562 26.699219 C 80.601562 25.632812 80.398438 24.800781 80 24.199219 C 79.535156 23.601562 78.933594 23.300781 78.199219 23.300781 C 78.199219 23.300781 78.199219 23.234375 78.199219 23.101562 C 78.199219 23.035156 78.199219 23 78.199219 23 L 79.5 23 C 80.101562 23.066406 80.601562 23.101562 81 23.101562 C 81.398438 23.101562 81.933594 23.066406 82.601562 23 L 84 23 C 84 23 84 23.035156 84 23.101562 C 84 23.234375 84 23.300781 84 23.300781 C 83.199219 23.300781 82.566406 23.601562 82.101562 24.199219 C 81.699219 24.800781 81.5 25.632812 81.5 26.699219 Z M 85.5 41 C 85.433594 41 85.398438 40.964844 85.398438 40.898438 C 85.398438 40.765625 85.433594 40.699219 85.5 40.699219 C 86.101562 40.699219 86.535156 40.632812 86.800781 40.5 C 87.132812 40.433594 87.332031 40.265625 87.398438 40 C 87.535156 39.734375 87.601562 39.300781 87.601562 38.699219 L 87.601562 25.300781 C 87.601562 24.699219 87.535156 24.265625 87.398438 24 C 87.332031 23.734375 87.132812 23.535156 86.800781 23.398438 C 86.535156 23.332031 86.101562 23.300781 85.5 23.300781 C 85.433594 23.300781 85.398438 23.234375 85.398438 23.101562 C 85.398438 22.964844 85.433594 22.898438 85.5 22.898438 L 97.800781 22.898438 C 98 22.898438 98.101562 23 98.101562 23.199219 L 98.101562 27 C 98.101562 27.066406 98.066406 27.101562 98 27.101562 C 97.867188 27.167969 97.800781 27.167969 97.800781 27.101562 C 97.464844 25.964844 96.933594 25.132812 96.199219 24.601562 C 95.464844 24.066406 94.5 23.800781 93.300781 23.800781 L 92.5 23.800781 C 91.898438 23.800781 91.464844 23.898438 91.199219 24.101562 C 90.933594 24.367188 90.800781 24.765625 90.800781 25.300781 L 90.800781 38.601562 C 90.800781 39.132812 90.898438 39.535156 91.101562 39.800781 C 91.300781 40.066406 91.632812 40.199219 92.101562 40.199219 L 93.101562 40.199219 C 94.566406 40.199219 95.765625 39.898438 96.699219 39.300781 C 97.632812 38.699219 98.300781 37.734375 98.699219 36.398438 C 98.699219 36.398438 98.734375 36.398438 98.800781 36.398438 C 98.867188 36.398438 98.933594 36.398438 99 36.398438 C 99 36.464844 99 36.5 99 36.5 C 98.867188 38.035156 98.800781 39.398438 98.800781 40.601562 C 98.800781 40.734375 98.765625 40.867188 98.699219 41 C 98.632812 41 98.5 41 98.300781 41 Z M 96.699219 34.601562 C 96.699219 33.800781 96.398438 33.167969 95.800781 32.699219 C 95.199219 32.234375 94.332031 32 93.199219 32 L 89.300781 32 L 89.300781 31.199219 L 93.199219 31.199219 C 94.332031 31.199219 95.199219 31 95.800781 30.601562 C 96.398438 30.265625 96.699219 29.734375 96.699219 29 C 96.699219 28.933594 96.734375 28.898438 96.800781 28.898438 C 96.933594 28.898438 97 28.933594 97 29 L 97 33 C 97.066406 33.667969 97.101562 34.199219 97.101562 34.601562 C 97.101562 34.601562 97.035156 34.601562 96.898438 34.601562 C 96.765625 34.601562 96.699219 34.601562 96.699219 34.601562 Z M 115.699219 41 C 115.234375 41 114.398438 40.199219 113.199219 38.601562 C 112 37 110.566406 34.765625 108.898438 31.898438 L 111.601562 31.101562 C 113.199219 33.5 114.535156 35.398438 115.601562 36.800781 C 116.667969 38.132812 117.601562 39.132812 118.398438 39.800781 C 119.265625 40.398438 120.101562 40.699219 120.898438 40.699219 C 120.898438 40.699219 120.898438 40.765625 120.898438 40.898438 C 120.898438 40.964844 120.898438 41 120.898438 41 Z M 109.398438 22.800781 C 111.199219 22.800781 112.566406 23.132812 113.5 23.800781 C 114.5 24.464844 115 25.367188 115 26.5 C 115 27.632812 114.667969 28.632812 114 29.5 C 113.398438 30.367188 112.601562 31.066406 111.601562 31.601562 C 110.601562 32.066406 109.535156 32.300781 108.398438 32.300781 C 107.667969 32.300781 107.132812 32.300781 106.800781 32.300781 L 106.800781 38.699219 C 106.800781 39.300781 106.867188 39.734375 107 40 C 107.066406 40.265625 107.234375 40.433594 107.5 40.5 C 107.765625 40.632812 108.234375 40.699219 108.898438 40.699219 C 108.898438 40.699219 108.898438 40.765625 108.898438 40.898438 C 108.898438 40.964844 108.898438 41 108.898438 41 C 108.234375 41 107.734375 41 107.398438 41 L 103 41 C 102.667969 41 102.167969 41 101.5 41 C 101.433594 41 101.398438 40.964844 101.398438 40.898438 C 101.398438 40.765625 101.433594 40.699219 101.5 40.699219 C 102.101562 40.699219 102.535156 40.632812 102.800781 40.5 C 103.132812 40.433594 103.332031 40.265625 103.398438 40 C 103.535156 39.734375 103.601562 39.300781 103.601562 38.699219 L 103.601562 25.300781 C 103.601562 24.699219 103.535156 24.265625 103.398438 24 C 103.332031 23.734375 103.132812 23.535156 102.800781 23.398438 C 102.535156 23.332031 102.101562 23.300781 101.5 23.300781 C 101.5 23.300781 101.5 23.234375 101.5 23.101562 C 101.5 22.964844 101.5 22.898438 101.5 22.898438 L 103 22.898438 C 103.933594 22.964844 104.667969 23 105.199219 23 C 105.867188 23 106.535156 22.964844 107.199219 22.898438 C 107.464844 22.898438 107.800781 22.898438 108.199219 22.898438 C 108.535156 22.832031 108.933594 22.800781 109.398438 22.800781 Z M 111.699219 27.601562 C 111.699219 26 111.464844 24.898438 111 24.300781 C 110.535156 23.699219 109.867188 23.398438 109 23.398438 C 108.199219 23.398438 107.632812 23.566406 107.300781 23.898438 C 106.964844 24.167969 106.800781 24.632812 106.800781 25.300781 L 106.800781 31.5 C 107.265625 31.566406 107.832031 31.601562 108.5 31.601562 C 109.632812 31.601562 110.433594 31.300781 110.898438 30.699219 C 111.433594 30.035156 111.699219 29 111.699219 27.601562 Z M 131.398438 41.398438 C 129.199219 41.398438 127.265625 41 125.601562 40.199219 C 124 39.332031 122.765625 38.199219 121.898438 36.800781 C 121.035156 35.398438 120.601562 33.832031 120.601562 32.101562 C 120.601562 30.300781 121.101562 28.667969 122.101562 27.199219 C 123.035156 25.734375 124.367188 24.601562 126.101562 23.800781 C 127.832031 23 129.765625 22.601562 131.898438 22.601562 C 132.832031 22.601562 133.765625 22.667969 134.699219 22.800781 C 135.632812 22.933594 136.367188 23.132812 136.898438 23.398438 C 137.101562 23.464844 137.234375 23.535156 137.300781 23.601562 C 137.300781 23.601562 137.332031 23.734375 137.398438 24 L 137.699219 28.101562 C 137.699219 28.167969 137.667969 28.199219 137.601562 28.199219 C 137.464844 28.199219 137.398438 28.167969 137.398438 28.101562 C 137.132812 27.5 136.734375 26.800781 136.199219 26 C 135.601562 25.265625 134.867188 24.601562 134 24 C 133.066406 23.464844 132 23.199219 130.800781 23.199219 C 129.601562 23.199219 128.464844 23.535156 127.398438 24.199219 C 126.398438 24.867188 125.601562 25.832031 125 27.101562 C 124.398438 28.367188 124.101562 29.832031 124.101562 31.5 C 124.101562 33.300781 124.433594 34.933594 125.101562 36.398438 C 125.832031 37.800781 126.800781 38.898438 128 39.699219 C 129.199219 40.5 130.566406 40.898438 132.101562 40.898438 C 132.898438 40.898438 133.5 40.800781 133.898438 40.601562 C 134.367188 40.464844 134.699219 40.132812 134.898438 39.601562 C 135.101562 39.132812 135.199219 38.398438 135.199219 37.398438 C 135.199219 36.398438 135.132812 35.699219 135 35.300781 C 134.867188 34.898438 134.601562 34.632812 134.199219 34.5 C 133.867188 34.367188 133.234375 34.300781 132.300781 34.300781 C 132.167969 34.300781 132.101562 34.234375 132.101562 34.101562 C 132.101562 34.035156 132.101562 33.964844 132.101562 33.898438 C 132.167969 33.832031 132.199219 33.800781 132.199219 33.800781 C 133.867188 33.933594 135.199219 34 136.199219 34 C 137.199219 34 138.234375 33.964844 139.300781 33.898438 C 139.367188 33.898438 139.398438 33.964844 139.398438 34.101562 C 139.464844 34.234375 139.433594 34.300781 139.300781 34.300781 C 138.964844 34.300781 138.734375 34.367188 138.601562 34.5 C 138.464844 34.632812 138.367188 34.933594 138.300781 35.398438 C 138.234375 35.800781 138.199219 36.566406 138.199219 37.699219 C 138.199219 38.566406 138.234375 39.167969 138.300781 39.5 C 138.367188 39.898438 138.398438 40.132812 138.398438 40.199219 C 138.398438 40.332031 138.398438 40.433594 138.398438 40.5 C 138.332031 40.5 138.234375 40.535156 138.101562 40.601562 C 135.632812 41.132812 133.398438 41.398438 131.398438 41.398438 Z M 153.199219 26.898438 C 153.734375 26.035156 154 25.300781 154 24.699219 C 154 24.234375 153.832031 23.867188 153.5 23.601562 C 153.234375 23.398438 152.832031 23.300781 152.300781 23.300781 C 152.300781 23.300781 152.300781 23.234375 152.300781 23.101562 C 152.300781 22.964844 152.300781 22.898438 152.300781 22.898438 L 153.898438 22.898438 C 154.765625 22.964844 155.566406 23 156.300781 23 C 156.632812 23 157 22.964844 157.398438 22.898438 L 158.5 22.898438 C 158.566406 22.898438 158.601562 22.964844 158.601562 23.101562 C 158.601562 23.234375 158.566406 23.300781 158.5 23.300781 C 157.898438 23.300781 157.167969 23.667969 156.300781 24.398438 C 155.433594 25.132812 154.667969 26.066406 154 27.199219 L 150.199219 33.5 L 149.601562 33 Z M 143.601562 26.199219 C 142.867188 25.066406 142.265625 24.300781 141.800781 23.898438 C 141.332031 23.433594 140.933594 23.199219 140.601562 23.199219 C 140.535156 23.199219 140.5 23.167969 140.5 23.101562 C 140.5 22.964844 140.535156 22.898438 140.601562 22.898438 L 141.5 22.898438 C 141.898438 22.964844 142.199219 23 142.398438 23 C 143.066406 23 144.035156 22.964844 145.300781 22.898438 L 147.199219 22.898438 C 147.265625 22.898438 147.300781 22.964844 147.300781 23.101562 C 147.300781 23.167969 147.265625 23.199219 147.199219 23.199219 C 146.867188 23.199219 146.601562 23.300781 146.398438 23.5 C 146.265625 23.632812 146.199219 23.832031 146.199219 24.101562 C 146.199219 24.367188 146.332031 24.734375 146.601562 25.199219 L 150.800781 31.800781 L 148 33.101562 Z M 151 31.699219 L 151 38.601562 C 151 39.199219 151.066406 39.632812 151.199219 39.898438 C 151.265625 40.167969 151.433594 40.367188 151.699219 40.5 C 152.035156 40.566406 152.5 40.601562 153.101562 40.601562 C 153.167969 40.601562 153.199219 40.667969 153.199219 40.800781 C 153.199219 40.867188 153.167969 40.898438 153.101562 40.898438 C 152.433594 40.898438 151.933594 40.898438 151.601562 40.898438 L 147.300781 40.898438 C 146.898438 40.898438 146.367188 40.898438 145.699219 40.898438 C 145.632812 40.898438 145.601562 40.867188 145.601562 40.800781 C 145.601562 40.667969 145.632812 40.601562 145.699219 40.601562 C 146.300781 40.601562 146.734375 40.566406 147 40.5 C 147.332031 40.367188 147.535156 40.167969 147.601562 39.898438 C 147.734375 39.632812 147.800781 39.199219 147.800781 38.601562 L 147.800781 32 Z M 52 47.699219 C 52 48.433594 52.199219 49.066406 52.601562 49.601562 C 52.933594 50.132812 53.367188 50.601562 53.898438 51 C 54.433594 51.398438 55.132812 51.898438 56 52.5 C 57 53.101562 57.765625 53.632812 58.300781 54.101562 C 58.898438 54.566406 59.398438 55.132812 59.800781 55.800781 C 60.199219 56.464844 60.398438 57.234375 60.398438 58.101562 C 60.398438 59.101562 60.132812 60 59.601562 60.800781 C 59.066406 61.601562 58.300781 62.199219 57.300781 62.601562 C 56.367188 63.066406 55.332031 63.300781 54.199219 63.300781 C 53.332031 63.300781 52.398438 63.167969 51.398438 62.898438 C 50.464844 62.632812 49.832031 62.367188 49.5 62.101562 C 49.433594 62.035156 49.367188 61.964844 49.300781 61.898438 C 49.234375 61.832031 49.199219 61.699219 49.199219 61.5 L 49.101562 56.898438 C 49.101562 56.832031 49.167969 56.800781 49.300781 56.800781 C 49.367188 56.800781 49.433594 56.832031 49.5 56.898438 C 50.035156 58.035156 50.535156 58.964844 51 59.699219 C 51.398438 60.433594 51.933594 61.101562 52.601562 61.699219 C 53.265625 62.234375 54.035156 62.5 54.898438 62.5 C 55.699219 62.5 56.332031 62.300781 56.800781 61.898438 C 57.332031 61.5 57.601562 60.800781 57.601562 59.800781 C 57.601562 58.933594 57.398438 58.167969 57 57.5 C 56.601562 56.898438 56.132812 56.367188 55.601562 55.898438 C 55.066406 55.5 54.332031 54.964844 53.398438 54.300781 C 52.464844 53.699219 51.734375 53.199219 51.199219 52.800781 C 50.734375 52.332031 50.300781 51.800781 49.898438 51.199219 C 49.566406 50.667969 49.398438 49.964844 49.398438 49.101562 C 49.398438 48.101562 49.667969 47.265625 50.199219 46.601562 C 50.800781 45.867188 51.566406 45.332031 52.5 45 C 53.433594 44.667969 54.433594 44.5 55.5 44.5 C 56.167969 44.5 56.832031 44.566406 57.5 44.699219 C 58.234375 44.765625 58.800781 44.898438 59.199219 45.101562 C 59.398438 45.167969 59.5 45.265625 59.5 45.398438 C 59.566406 45.464844 59.601562 45.566406 59.601562 45.699219 L 59.601562 49.898438 C 59.601562 49.964844 59.566406 50.035156 59.5 50.101562 C 59.367188 50.101562 59.300781 50.066406 59.300781 50 L 59.101562 49.5 C 58.632812 48.300781 58.066406 47.265625 57.398438 46.398438 C 56.734375 45.535156 55.832031 45.101562 54.699219 45.101562 C 53.898438 45.101562 53.265625 45.332031 52.800781 45.800781 C 52.265625 46.199219 52 46.832031 52 47.699219 Z M 68.398438 45.5 C 66.066406 45.433594 64.398438 46.898438 63.398438 49.898438 C 63.398438 49.964844 63.332031 50 63.199219 50 C 63.132812 50 63.101562 49.964844 63.101562 49.898438 C 63.167969 49.167969 63.234375 48.167969 63.300781 46.898438 C 63.433594 45.699219 63.5 44.765625 63.5 44.101562 C 63.5 44.035156 63.535156 44 63.601562 44 C 63.734375 44 63.800781 44.035156 63.800781 44.101562 C 63.800781 44.566406 64.367188 44.800781 65.5 44.800781 C 67.101562 44.867188 69.035156 44.898438 71.300781 44.898438 C 72.433594 44.898438 73.632812 44.867188 74.898438 44.800781 L 76.898438 44.800781 C 77.632812 44.800781 78.167969 44.734375 78.5 44.601562 C 78.832031 44.535156 79.035156 44.367188 79.101562 44.101562 C 79.167969 43.964844 79.234375 43.898438 79.300781 43.898438 C 79.433594 43.898438 79.5 43.964844 79.5 44.101562 C 79.433594 44.632812 79.367188 45.535156 79.300781 46.800781 C 79.234375 48.132812 79.199219 49.167969 79.199219 49.898438 C 79.199219 49.964844 79.167969 50 79.101562 50 C 78.964844 50 78.898438 49.964844 78.898438 49.898438 C 78.566406 48.433594 78.035156 47.332031 77.300781 46.601562 C 76.5 45.867188 75.5 45.5 74.300781 45.5 C 73.765625 45.5 73.398438 45.601562 73.199219 45.800781 C 73 46.066406 72.898438 46.535156 72.898438 47.199219 L 72.898438 60.601562 C 72.898438 61.199219 72.964844 61.632812 73.101562 61.898438 C 73.234375 62.167969 73.464844 62.332031 73.800781 62.398438 C 74.132812 62.535156 74.632812 62.601562 75.300781 62.601562 C 75.367188 62.601562 75.398438 62.632812 75.398438 62.699219 C 75.398438 62.832031 75.367188 62.898438 75.300781 62.898438 C 74.632812 62.898438 74.101562 62.898438 73.699219 62.898438 L 71.300781 62.800781 L 68.898438 62.898438 C 68.5 62.898438 67.933594 62.898438 67.199219 62.898438 C 67.199219 62.898438 67.199219 62.832031 67.199219 62.699219 C 67.199219 62.632812 67.199219 62.601562 67.199219 62.601562 C 67.933594 62.601562 68.464844 62.535156 68.800781 62.398438 C 69.132812 62.332031 69.367188 62.167969 69.5 61.898438 C 69.632812 61.566406 69.699219 61.132812 69.699219 60.601562 L 69.699219 47.101562 C 69.699219 46.433594 69.601562 46 69.398438 45.800781 C 69.265625 45.535156 68.933594 45.398438 68.398438 45.398438 Z M 90.699219 63.398438 C 88.898438 63.398438 87.265625 62.964844 85.800781 62.101562 C 84.398438 61.234375 83.332031 60.101562 82.601562 58.699219 C 81.867188 57.234375 81.5 55.667969 81.5 54 C 81.5 52 82 50.300781 83 48.898438 C 84 47.433594 85.265625 46.332031 86.800781 45.601562 C 88.398438 44.933594 90.035156 44.601562 91.699219 44.601562 C 93.5 44.601562 95.101562 45.035156 96.5 45.898438 C 97.898438 46.699219 98.964844 47.832031 99.699219 49.300781 C 100.433594 50.699219 100.800781 52.199219 100.800781 53.800781 C 100.800781 55.535156 100.332031 57.132812 99.398438 58.601562 C 98.464844 60.066406 97.234375 61.234375 95.699219 62.101562 C 94.167969 62.964844 92.5 63.398438 90.699219 63.398438 Z M 91.601562 62.601562 C 92.667969 62.601562 93.632812 62.300781 94.5 61.699219 C 95.367188 61.035156 96.035156 60.101562 96.5 58.898438 C 97.035156 57.699219 97.300781 56.265625 97.300781 54.601562 C 97.300781 52.800781 97.035156 51.199219 96.5 49.800781 C 95.898438 48.398438 95.101562 47.300781 94.101562 46.5 C 93.101562 45.699219 91.898438 45.300781 90.5 45.300781 C 88.765625 45.300781 87.398438 45.964844 86.398438 47.300781 C 85.464844 48.632812 85 50.5 85 52.898438 C 85 54.765625 85.300781 56.433594 85.898438 57.898438 C 86.433594 59.367188 87.199219 60.535156 88.199219 61.398438 C 89.199219 62.199219 90.332031 62.601562 91.601562 62.601562 Z M 117.601562 63 C 117.132812 63 116.300781 62.199219 115.101562 60.601562 C 113.898438 59 112.464844 56.734375 110.800781 53.800781 L 113.5 53 C 115.101562 55.464844 116.433594 57.367188 117.5 58.699219 C 118.566406 60.101562 119.5 61.101562 120.300781 61.699219 C 121.167969 62.367188 122 62.699219 122.800781 62.699219 C 122.800781 62.699219 122.800781 62.734375 122.800781 62.800781 C 122.800781 62.933594 122.800781 63 122.800781 63 Z M 111.300781 44.800781 C 113.101562 44.800781 114.464844 45.132812 115.398438 45.800781 C 116.398438 46.398438 116.898438 47.300781 116.898438 48.5 C 116.898438 49.566406 116.566406 50.566406 115.898438 51.5 C 115.300781 52.367188 114.5 53.066406 113.5 53.601562 C 112.5 54.066406 111.433594 54.300781 110.300781 54.300781 C 109.566406 54.300781 109.035156 54.265625 108.699219 54.199219 L 108.699219 60.699219 C 108.699219 61.300781 108.765625 61.734375 108.898438 62 C 108.964844 62.265625 109.132812 62.433594 109.398438 62.5 C 109.734375 62.632812 110.199219 62.699219 110.800781 62.699219 C 110.800781 62.699219 110.800781 62.734375 110.800781 62.800781 C 110.800781 62.933594 110.800781 63 110.800781 63 C 110.132812 63 109.632812 63 109.300781 63 L 107.101562 62.898438 L 105 63 C 104.601562 63 104.066406 63 103.398438 63 C 103.332031 63 103.300781 62.933594 103.300781 62.800781 C 103.300781 62.734375 103.332031 62.699219 103.398438 62.699219 C 104 62.699219 104.433594 62.632812 104.699219 62.5 C 105.035156 62.433594 105.234375 62.265625 105.300781 62 C 105.433594 61.667969 105.5 61.234375 105.5 60.699219 L 105.5 47.199219 C 105.5 46.667969 105.433594 46.265625 105.300781 46 C 105.234375 45.667969 105.066406 45.464844 104.800781 45.398438 C 104.464844 45.265625 104 45.199219 103.398438 45.199219 C 103.398438 45.199219 103.398438 45.167969 103.398438 45.101562 C 103.398438 44.964844 103.398438 44.898438 103.398438 44.898438 L 105 44.898438 C 105.867188 44.964844 106.566406 45 107.101562 45 C 107.765625 45 108.433594 44.964844 109.101562 44.898438 C 109.367188 44.898438 109.699219 44.867188 110.101562 44.800781 C 110.433594 44.800781 110.832031 44.800781 111.300781 44.800781 Z M 113.601562 49.601562 C 113.601562 48 113.367188 46.898438 112.898438 46.300781 C 112.433594 45.699219 111.765625 45.398438 110.898438 45.398438 C 110.101562 45.398438 109.535156 45.535156 109.199219 45.800781 C 108.867188 46.132812 108.699219 46.632812 108.699219 47.300781 L 108.699219 53.398438 C 109.167969 53.535156 109.734375 53.601562 110.398438 53.601562 C 111.535156 53.601562 112.332031 53.265625 112.800781 52.601562 C 113.332031 52 113.601562 51 113.601562 49.601562 Z M 143.199219 62.699219 C 143.332031 62.699219 143.398438 62.734375 143.398438 62.800781 C 143.398438 62.933594 143.332031 63 143.199219 63 C 142.867188 63 142.265625 62.964844 141.398438 62.898438 C 140.601562 62.898438 140 62.898438 139.601562 62.898438 C 139.132812 62.898438 138.566406 62.898438 137.898438 62.898438 C 137.234375 62.964844 136.699219 63 136.300781 63 C 136.234375 63 136.199219 62.933594 136.199219 62.800781 C 136.199219 62.734375 136.234375 62.699219 136.300781 62.699219 C 136.765625 62.699219 137.132812 62.632812 137.398438 62.5 C 137.601562 62.367188 137.699219 62.167969 137.699219 61.898438 C 137.699219 61.566406 137.5 61.035156 137.101562 60.300781 L 131.199219 48.699219 L 132.699219 46.199219 L 126.898438 58.898438 C 126.632812 59.433594 126.5 59.964844 126.5 60.5 C 126.5 61.167969 126.734375 61.699219 127.199219 62.101562 C 127.734375 62.5 128.398438 62.699219 129.199219 62.699219 C 129.332031 62.699219 129.398438 62.734375 129.398438 62.800781 C 129.398438 62.933594 129.332031 63 129.199219 63 C 128.867188 63 128.367188 62.964844 127.699219 62.898438 C 126.964844 62.898438 126.332031 62.898438 125.800781 62.898438 C 125.265625 62.898438 124.632812 62.898438 123.898438 62.898438 C 123.234375 62.964844 122.699219 63 122.300781 63 C 122.234375 63 122.199219 62.933594 122.199219 62.800781 C 122.199219 62.734375 122.234375 62.699219 122.300781 62.699219 C 122.832031 62.699219 123.300781 62.566406 123.699219 62.300781 C 124.035156 62.101562 124.398438 61.734375 124.800781 61.199219 C 125.199219 60.601562 125.632812 59.734375 126.101562 58.601562 L 132.398438 44.800781 C 132.464844 44.734375 132.566406 44.699219 132.699219 44.699219 C 132.832031 44.699219 132.898438 44.734375 132.898438 44.800781 L 140.199219 59 C 140.867188 60.398438 141.433594 61.367188 141.898438 61.898438 C 142.300781 62.433594 142.734375 62.699219 143.199219 62.699219 Z M 127.800781 55.601562 L 136.199219 55.601562 L 136.398438 56.398438 L 127.398438 56.398438 Z M 155 63.398438 C 152.800781 63.398438 150.898438 63 149.300781 62.199219 C 147.699219 61.332031 146.464844 60.199219 145.601562 58.800781 C 144.734375 57.398438 144.300781 55.832031 144.300781 54.101562 C 144.300781 52.234375 144.765625 50.601562 145.699219 49.199219 C 146.699219 47.734375 148.066406 46.601562 149.800781 45.800781 C 151.464844 45 153.398438 44.601562 155.601562 44.601562 C 156.535156 44.601562 157.464844 44.667969 158.398438 44.800781 C 159.265625 44.933594 160 45.132812 160.601562 45.398438 C 160.800781 45.464844 160.898438 45.535156 160.898438 45.601562 C 160.964844 45.601562 161 45.734375 161 46 L 161.398438 50.101562 C 161.398438 50.101562 161.332031 50.132812 161.199219 50.199219 C 161.132812 50.199219 161.066406 50.167969 161 50.101562 C 160.800781 49.433594 160.398438 48.734375 159.800781 48 C 159.265625 47.265625 158.535156 46.601562 157.601562 46 C 156.734375 45.464844 155.699219 45.199219 154.5 45.199219 C 153.234375 45.199219 152.101562 45.535156 151.101562 46.199219 C 150.035156 46.867188 149.199219 47.832031 148.601562 49.101562 C 148.066406 50.367188 147.800781 51.832031 147.800781 53.5 C 147.800781 55.300781 148.132812 56.933594 148.800781 58.398438 C 149.464844 59.800781 150.433594 60.898438 151.699219 61.699219 C 152.898438 62.5 154.265625 62.898438 155.800781 62.898438 C 156.601562 62.898438 157.199219 62.800781 157.601562 62.601562 C 158 62.464844 158.300781 62.132812 158.5 61.601562 C 158.699219 61.066406 158.800781 60.332031 158.800781 59.398438 C 158.800781 58.398438 158.734375 57.699219 158.601562 57.300781 C 158.535156 56.898438 158.300781 56.632812 157.898438 56.5 C 157.5 56.367188 156.832031 56.300781 155.898438 56.300781 C 155.765625 56.300781 155.699219 56.199219 155.699219 56 C 155.699219 55.933594 155.734375 55.898438 155.800781 55.898438 C 155.800781 55.832031 155.832031 55.800781 155.898438 55.800781 C 157.566406 55.867188 158.898438 55.898438 159.898438 55.898438 C 160.898438 55.898438 161.933594 55.898438 163 55.898438 C 163.066406 55.898438 163.101562 55.964844 163.101562 56.101562 C 163.101562 56.234375 163.066406 56.300781 163 56.300781 C 162.601562 56.234375 162.332031 56.300781 162.199219 56.5 C 162.066406 56.632812 161.964844 56.898438 161.898438 57.300781 C 161.898438 57.765625 161.898438 58.566406 161.898438 59.699219 C 161.898438 60.566406 161.933594 61.167969 162 61.5 C 162.066406 61.898438 162.101562 62.132812 162.101562 62.199219 C 162.101562 62.332031 162.066406 62.398438 162 62.398438 C 162 62.464844 161.933594 62.535156 161.800781 62.601562 C 159.265625 63.132812 157 63.398438 155 63.398438 Z M 165.199219 63 C 165.132812 63 165.101562 62.933594 165.101562 62.800781 C 165.101562 62.734375 165.132812 62.699219 165.199219 62.699219 C 165.867188 62.699219 166.332031 62.632812 166.601562 62.5 C 166.867188 62.433594 167.066406 62.265625 167.199219 62 C 167.265625 61.667969 167.300781 61.234375 167.300781 60.699219 L 167.300781 47.199219 C 167.300781 46.667969 167.265625 46.265625 167.199219 46 C 167.066406 45.734375 166.867188 45.535156 166.601562 45.398438 C 166.265625 45.265625 165.800781 45.199219 165.199219 45.199219 C 165.132812 45.199219 165.101562 45.167969 165.101562 45.101562 C 165.101562 44.964844 165.132812 44.898438 165.199219 44.898438 L 177.5 44.898438 C 177.699219 44.898438 177.800781 45 177.800781 45.199219 L 177.898438 49 C 177.898438 49.066406 177.832031 49.101562 177.699219 49.101562 C 177.632812 49.101562 177.566406 49.066406 177.5 49 C 177.234375 47.933594 176.734375 47.101562 176 46.5 C 175.265625 45.964844 174.300781 45.699219 173.101562 45.699219 L 172.199219 45.699219 C 171.601562 45.699219 171.167969 45.832031 170.898438 46.101562 C 170.632812 46.367188 170.5 46.765625 170.5 47.300781 L 170.5 60.601562 C 170.5 61.132812 170.601562 61.535156 170.800781 61.800781 C 171.066406 62.066406 171.398438 62.199219 171.800781 62.199219 L 172.800781 62.199219 C 174.332031 62.199219 175.535156 61.898438 176.398438 61.300781 C 177.332031 60.699219 178 59.734375 178.398438 58.398438 C 178.398438 58.398438 178.433594 58.398438 178.5 58.398438 C 178.566406 58.398438 178.632812 58.398438 178.699219 58.398438 C 178.765625 58.398438 178.800781 58.433594 178.800781 58.5 C 178.601562 59.964844 178.5 61.332031 178.5 62.601562 C 178.5 62.734375 178.464844 62.832031 178.398438 62.898438 C 178.332031 62.964844 178.234375 63 178.101562 63 Z M 176.300781 56.601562 C 176.300781 55.800781 176 55.167969 175.398438 54.699219 C 174.800781 54.234375 173.933594 54 172.800781 54 L 168.898438 54 L 168.898438 53.199219 L 172.800781 53.199219 C 173.933594 53.199219 174.800781 53 175.398438 52.601562 C 176 52.199219 176.300781 51.667969 176.300781 51 C 176.300781 50.933594 176.367188 50.898438 176.5 50.898438 C 176.566406 50.898438 176.601562 50.933594 176.601562 51 L 176.601562 55 C 176.667969 55.667969 176.699219 56.199219 176.699219 56.601562 C 176.699219 56.601562 176.632812 56.601562 176.5 56.601562 C 176.367188 56.601562 176.300781 56.601562 176.300781 56.601562 Z M 176.300781 56.601562 "/>
<path style="fill-rule:nonzero;fill:rgb(0%,0%,0%);fill-opacity:1;stroke-width:2.1;stroke-linecap:butt;stroke-linejoin:miter;stroke:rgb(0%,0%,0%);stroke-opacity:1;stroke-miterlimit:4;" d="M 5.5 2 L 2 10.5 L 38.199219 10.5 L 34.800781 2 Z M 2.101562 13.601562 L 2.101562 66.398438 L 38.101562 66.398438 L 38.101562 13.601562 Z M 2 69.5 L 5.398438 78 L 34.699219 78 L 38.199219 69.5 Z M 2 69.5 "/>
<path style="fill:none;stroke-width:1.8;stroke-linecap:round;stroke-linejoin:round;stroke:rgb(100%,100%,100%);stroke-opacity:1;stroke-miterlimit:4;" d="M 19.5 28.898438 C 19.800781 28.199219 20 27.800781 20.199219 27.699219 C 20.398438 27.601562 20.601562 27.601562 20.800781 27.699219 C 21 27.800781 21.199219 28.199219 21.5 28.898438 L 24.199219 35 C 24.300781 35.199219 24.300781 35.300781 24.398438 35.398438 C 24.464844 35.464844 24.535156 35.535156 24.601562 35.601562 C 24.699219 35.601562 24.800781 35.601562 25.101562 35.699219 L 31.5 36.300781 C 32.300781 36.398438 32.699219 36.5 32.898438 36.699219 C 33 36.800781 33.101562 37.101562 33.101562 37.300781 C 33 37.5 32.699219 37.800781 32.101562 38.398438 L 27.398438 42.800781 C 27.199219 43 27.101562 43 27 43.101562 C 27 43.234375 26.964844 43.332031 26.898438 43.398438 C 26.898438 43.5 26.898438 43.699219 27 43.898438 L 28.300781 50.398438 C 28.5 51.199219 28.601562 51.601562 28.5 51.800781 C 28.398438 52 28.199219 52.199219 28 52.199219 C 27.699219 52.199219 27.398438 52 26.699219 51.601562 L 21.101562 48.300781 C 20.898438 48.199219 20.800781 48.101562 20.601562 48.101562 C 20.535156 48.101562 20.464844 48.101562 20.398438 48.101562 C 20.199219 48.101562 20.101562 48.199219 19.898438 48.300781 L 14.300781 51.601562 C 13.601562 52 13.300781 52.199219 13 52.199219 C 12.800781 52.199219 12.601562 52 12.5 51.800781 C 12.398438 51.601562 12.5 51.199219 12.699219 50.398438 L 14 43.898438 C 14 43.699219 14.101562 43.5 14.101562 43.398438 C 14.035156 43.332031 14 43.234375 14 43.101562 C 13.898438 43 13.800781 43 13.601562 42.800781 L 8.898438 38.398438 C 8.300781 37.800781 8 37.5 7.898438 37.300781 C 7.898438 37.101562 8 36.800781 8.101562 36.699219 C 8.300781 36.5 8.699219 36.398438 9.5 36.300781 L 15.898438 35.699219 C 16.199219 35.601562 16.300781 35.601562 16.398438 35.601562 C 16.464844 35.535156 16.535156 35.464844 16.601562 35.398438 C 16.699219 35.300781 16.699219 35.199219 16.800781 35 Z M 19.5 28.898438 "/>
<path style="fill:none;stroke-width:3;stroke-linecap:round;stroke-linejoin:miter;stroke:rgb(100%,100%,100%);stroke-opacity:1;stroke-miterlimit:4;" d="M 17.5 44.699219 C 17.5 43.832031 17.5 42.964844 17.5 42.101562 C 17.5 41.699219 17.601562 40.800781 17.398438 40.398438 C 17.300781 40.101562 17.398438 39.898438 17.601562 39.699219 C 18.101562 38.800781 18.699219 37.898438 19.300781 37.101562 C 19.699219 36.5 20.800781 35.699219 20.898438 34.898438 C 21 34.699219 21.101562 33.800781 20.800781 33.699219 C 20.300781 33.398438 19.898438 34.199219 19.601562 34.5 C 18.800781 35.300781 18.5 36.398438 18 37.398438 C 17.699219 38 17.398438 38.5 17.101562 39.101562 C 17 39.398438 17.300781 39.300781 17.5 39.398438 C 18.699219 39.5 20.398438 39.5 21.5 39 C 22.398438 38.601562 20.800781 37.5 20.601562 37.398438 C 18.199219 36 17 39.101562 18.101562 41 C 19.101562 42.898438 22.101562 41.199219 22.601562 39.601562 C 22.800781 38.898438 22.199219 38.300781 21.5 38.199219 C 20.199219 38 19.699219 39.5 19.699219 40.5 C 19.699219 41.300781 20 41.898438 20.800781 41.898438 C 21.601562 41.800781 23.300781 41.101562 23.699219 40.300781 C 24 39.699219 21.800781 39.898438 21.699219 39.898438 C 20.5 40 19 40.398438 18.601562 41.800781 C 18.199219 43.398438 20.601562 44.101562 21.699219 43.601562 C 22.398438 43.300781 22.699219 42.101562 22.199219 41.601562 C 21.300781 40.601562 20.699219 42.398438 20.601562 43 C 20.199219 44.898438 21.398438 44.300781 22.601562 44.601562 C 23.5 44.800781 23.5 45.601562 24 46.300781 C 24.199219 46.5 24.300781 46.601562 24.5 46.601562 C 24.601562 46.601562 25.199219 46.699219 25.199219 46.699219 C 25.300781 46.199219 24.5 45.101562 24.300781 44.699219 C 23.699219 43.699219 22.898438 42.5 22.699219 41.300781 C 22.300781 39.300781 24.898438 38.800781 26.300781 38.601562 C 26.5 38.601562 27.699219 38.398438 27.5 38.398438 C 26.300781 38.300781 25.101562 38.398438 23.898438 38.398438 C 23.101562 38.398438 22.300781 38.398438 21.5 38.398438 C 21.101562 38.398438 20.699219 38.398438 20.398438 38 C 19.5 36.800781 19.898438 34.601562 20.101562 33.300781 C 20.101562 33.101562 20.199219 32.699219 20.199219 32.5 C 20.101562 32.398438 20 32.800781 20 32.898438 C 19.699219 33.5 19.601562 34.199219 19.398438 34.898438 C 19 36.5 18.5 39 16.5 38.800781 C 15.398438 38.699219 12.101562 37.898438 13.199219 38.300781 C 13.699219 38.5 14.199219 38.601562 14.699219 38.800781 C 15.300781 39.101562 15.800781 39.398438 16.398438 39.699219 C 17.300781 40.101562 17.398438 40.898438 17.300781 41.898438 C 17.101562 43.300781 16.800781 44.601562 16.800781 46 "/>
<path style="fill:none;stroke-width:2;stroke-linecap:round;stroke-linejoin:miter;stroke:rgb(100%,100%,100%);stroke-opacity:1;stroke-miterlimit:4;" d="M 14.101562 40 C 13.300781 40 13 39.898438 12.398438 39.398438 C 12.101562 39.101562 11.898438 38.898438 11.5 38.699219 C 11 38.398438 10.5 38 9.898438 37.898438 C 9.699219 37.898438 9.5 37.699219 9.300781 37.601562 C 8.800781 37.398438 10.199219 37.699219 10.601562 37.5 C 11.300781 37.300781 10.101562 37.398438 9.800781 37.398438 C 9.5 37.398438 9.300781 37.398438 9.101562 37.300781 "/>
<path style="fill:none;stroke-width:2;stroke-linecap:round;stroke-linejoin:miter;stroke:rgb(100%,100%,100%);stroke-opacity:1;stroke-miterlimit:4;" d="M 10.898438 37.101562 C 11.898438 37.101562 13.199219 37.300781 14.199219 37 C 14.699219 36.898438 15.300781 36.800781 15.898438 36.800781 C 16.199219 36.800781 17.300781 36.898438 17 36.5 "/>
<path style="fill:none;stroke-width:2;stroke-linecap:round;stroke-linejoin:miter;stroke:rgb(100%,100%,100%);stroke-opacity:1;stroke-miterlimit:4;" d="M 16.601562 37.898438 C 16.601562 37.898438 16.398438 37.898438 16.398438 37.898438 C 17 37.800781 17.601562 37.699219 18.199219 37.699219 "/>
<path style="fill:none;stroke-width:2;stroke-linecap:round;stroke-linejoin:miter;stroke:rgb(100%,100%,100%);stroke-opacity:1;stroke-miterlimit:4;" d="M 17.699219 35.898438 C 17.699219 35.199219 17.601562 34.5 17.898438 33.898438 C 18.300781 33.199219 18.699219 32.601562 19 31.800781 C 19.101562 31.5 19.101562 31.101562 19.300781 30.800781 C 19.398438 30.398438 19.601562 30.199219 19.800781 29.898438 C 20.101562 29.699219 20.101562 29.398438 20.199219 29.101562 "/>
<path style="fill:none;stroke-width:2;stroke-linecap:round;stroke-linejoin:miter;stroke:rgb(100%,100%,100%);stroke-opacity:1;stroke-miterlimit:4;" d="M 20.199219 29.101562 C 20.199219 29.699219 20.800781 30.398438 21.101562 31 C 21.398438 31.800781 22 32.398438 22.5 33.101562 C 22.898438 33.601562 23.300781 34 23.398438 34.601562 C 23.601562 35.101562 23.800781 35.601562 24 36.101562 "/>
<path style="fill:none;stroke-width:2;stroke-linecap:round;stroke-linejoin:miter;stroke:rgb(100%,100%,100%);stroke-opacity:1;stroke-miterlimit:4;" d="M 24 36.101562 C 24.898438 36.101562 25.800781 36 26.699219 36.300781 C 27.300781 36.601562 28 36.601562 28.699219 36.699219 C 29.398438 36.800781 30 37.101562 30.699219 37.101562 C 30.800781 37.101562 31.800781 37.199219 31.601562 37.398438 "/>
<path style="fill:none;stroke-width:2;stroke-linecap:round;stroke-linejoin:miter;stroke:rgb(100%,100%,100%);stroke-opacity:1;stroke-miterlimit:4;" d="M 31.601562 37.398438 C 30.898438 37.398438 30.5 37.5 29.898438 38 C 29.199219 38.5 28.5 39.199219 28 39.800781 C 27.300781 40.800781 26.300781 41.5 25.601562 42.601562 "/>
<path style="fill:none;stroke-width:2;stroke-linecap:round;stroke-linejoin:miter;stroke:rgb(100%,100%,100%);stroke-opacity:1;stroke-miterlimit:4;" d="M 25.601562 42.601562 C 26.898438 42.601562 27.699219 41.101562 28.601562 40.300781 C 29.101562 39.800781 29.699219 39.300781 30.199219 38.699219 C 30.5 38.398438 30.699219 38 31 37.800781 C 31.199219 37.699219 31.300781 37.699219 31.300781 37.601562 "/>
<path style="fill:none;stroke-width:2;stroke-linecap:round;stroke-linejoin:miter;stroke:rgb(100%,100%,100%);stroke-opacity:1;stroke-miterlimit:4;" d="M 25.699219 43.300781 C 25.699219 42.699219 25.800781 44.5 26 45 C 26.300781 46.101562 26.601562 47.199219 27 48.199219 C 27.199219 48.800781 27.5 49.699219 27.5 50.300781 C 27.5 50.601562 27.898438 50.898438 27.5 50.898438 "/>
<path style="fill:none;stroke-width:2;stroke-linecap:round;stroke-linejoin:miter;stroke:rgb(100%,100%,100%);stroke-opacity:1;stroke-miterlimit:4;" d="M 27.5 50.898438 C 26.101562 50.398438 25.601562 48.898438 24.300781 48.199219 C 23.699219 47.898438 23 47.300781 22.300781 47.101562 C 21.898438 47 21.601562 46.601562 21.101562 46.601562 "/>
<path style="fill:none;stroke-width:2;stroke-linecap:round;stroke-linejoin:miter;stroke:rgb(100%,100%,100%);stroke-opacity:1;stroke-miterlimit:4;" d="M 21.101562 46.5 C 21.898438 46.601562 22.699219 47.199219 23.199219 47.800781 C 23.699219 48.199219 24.101562 49.199219 24.699219 49.398438 C 25.199219 49.5 23.699219 48.800781 23.300781 48.398438 C 22.898438 48.101562 22.5 47.398438 21.898438 47.398438 C 21.300781 47.398438 20.898438 46.898438 20.398438 46.699219 "/>
<path style="fill:none;stroke-width:2;stroke-linecap:round;stroke-linejoin:miter;stroke:rgb(100%,100%,100%);stroke-opacity:1;stroke-miterlimit:4;" d="M 20.398438 46.699219 C 20.300781 46.898438 19.601562 46.800781 19.5 46.800781 C 18.898438 46.800781 18.398438 47.199219 17.898438 47.601562 C 17.199219 48.101562 16.601562 48.601562 15.800781 49 C 15.398438 49.199219 14.5 49.601562 14.300781 50.101562 C 14.199219 50.300781 13.300781 50.898438 13.300781 50.800781 C 13.199219 50.699219 16.199219 49.101562 16.5 48.898438 C 17.199219 48.5 17.699219 48 18.5 47.699219 C 18.800781 47.601562 19.300781 47.5 19.398438 47.199219 "/>
<path style="fill:none;stroke-width:2;stroke-linecap:round;stroke-linejoin:miter;stroke:rgb(100%,100%,100%);stroke-opacity:1;stroke-miterlimit:4;" d="M 13.5 49.601562 C 13.5 48.300781 13.398438 47.101562 13.800781 46 C 14.101562 45 14.398438 44 14.601562 43 C 14.800781 42.101562 14.101562 41.898438 13.601562 41.300781 C 13.101562 40.898438 12.601562 40.199219 12 39.800781 C 11.800781 39.667969 11.632812 39.535156 11.5 39.398438 C 11.101562 38.898438 11.898438 39.300781 12 39.300781 C 13.601562 39.898438 15.199219 40.300781 16.699219 41 C 16.898438 41.101562 17.601562 41.300781 17.699219 41.601562 C 17.699219 41.601562 15.699219 41.601562 15.5 41.601562 C 15 41.5 14.800781 41.5 14.800781 41 C 14.898438 40.5 16 39.898438 16.300781 39.699219 C 17.800781 38.699219 19.300781 37.800781 20.5 36.398438 C 21.101562 35.800781 21.398438 35.5 21.5 34.699219 C 21.699219 33.5 20.300781 32.800781 20.300781 31.601562 C 20.300781 31.398438 20.199219 31.300781 20.199219 31.699219 C 20.300781 33.199219 21.101562 34.601562 21.898438 35.800781 C 22.5 36.699219 23.101562 37.601562 23.398438 38.601562 C 23.5 38.699219 23.601562 39.800781 23.398438 39.800781 C 22.699219 39.699219 22.898438 37.300781 22.898438 36.898438 C 22.898438 36.199219 22.800781 35.601562 22.699219 35 C 22.699219 34.800781 22.601562 34.101562 22.398438 34.101562 C 22.101562 34 22.300781 34.699219 22.300781 35 C 22.199219 36.699219 21.898438 38.300781 21.199219 39.800781 C 20.398438 41.5 19.101562 43.199219 17.398438 44.101562 C 17.101562 44.300781 16.398438 44.601562 16.101562 44.398438 C 15.699219 44.101562 16.101562 42.699219 16.199219 42.300781 C 16.300781 41.5 15.800781 42.699219 15.699219 42.898438 C 15.300781 44.398438 15.398438 45.800781 14.601562 47.300781 C 14.199219 47.898438 13.800781 49.199219 15 48.300781 C 15.898438 47.699219 16.398438 46.800781 17 45.800781 C 17.300781 45.199219 18 44.800781 18.601562 44.5 C 19.300781 44.101562 19.699219 44 19 44.800781 C 18.5 45.398438 16.699219 47.101562 17.398438 46.699219 C 17.898438 46.398438 20.101562 45 20.601562 45.800781 C 20.898438 46.199219 20.5 46.5 20.101562 46.699219 C 19.199219 47 21.800781 45.5 22.800781 45.199219 C 24.101562 44.601562 24.300781 46.398438 25.101562 47.101562 C 25.699219 47.601562 26.199219 48.398438 26.398438 49.101562 C 26.5 49.199219 26.300781 49.101562 26.199219 49 C 25.667969 48.535156 25.101562 48.101562 24.5 47.699219 C 23.699219 47.199219 22.898438 46.699219 22.101562 46.300781 C 21.800781 46.101562 21.5 46.300781 21.800781 45.699219 C 22.601562 43.898438 23.898438 42.5 25 40.898438 C 25.199219 40.5 25.601562 40.101562 25.601562 39.699219 C 25.699219 39.398438 25.898438 38.898438 25.5 39.398438 C 24.601562 40.5 24.101562 42.398438 24.398438 43.800781 C 24.398438 43.898438 24.5 43.699219 24.5 43.601562 C 24.800781 43 25 42.398438 25.199219 41.800781 C 25.601562 40.898438 26 39.800781 26.800781 39.101562 C 27.101562 38.898438 29 38.699219 29 38.199219 C 29 36.898438 26.800781 37.199219 26.101562 37.199219 C 24.898438 37.199219 23.800781 37.101562 22.601562 37 "/>
<path style=" stroke:none;fill-rule:evenodd;fill:rgb(100%,100%,100%);fill-opacity:1;" d="M 2 24.898438 L 13.5 24.898438 C 13.699219 24.898438 13.898438 25.101562 13.898438 25.300781 C 13.898438 25.601562 13.699219 25.699219 13.5 25.699219 L 2 25.699219 C 1.699219 25.699219 1.5 25.601562 1.5 25.300781 C 1.5 25.101562 1.699219 24.898438 2 24.898438 Z M 2 24.898438 "/>
<path style=" stroke:none;fill-rule:evenodd;fill:rgb(100%,100%,100%);fill-opacity:1;" d="M 2 24.898438 L 13.5 24.898438 C 13.699219 24.898438 13.898438 25.101562 13.898438 25.300781 C 13.898438 25.601562 13.699219 25.699219 13.5 25.699219 L 2 25.699219 C 1.699219 25.699219 1.5 25.601562 1.5 25.300781 C 1.5 25.101562 1.699219 24.898438 2 24.898438 Z M 2 24.898438 "/>
<path style=" stroke:none;fill-rule:evenodd;fill:rgb(100%,100%,100%);fill-opacity:1;" d="M 2 29 L 8.898438 29 C 9.101562 29 9.300781 29.199219 9.300781 29.398438 C 9.300781 29.601562 9.101562 29.800781 8.898438 29.800781 L 2 29.800781 C 1.699219 29.800781 1.5 29.601562 1.5 29.398438 C 1.5 29.199219 1.699219 29 2 29 Z M 2 29 "/>
<path style=" stroke:none;fill-rule:evenodd;fill:rgb(83.137256%,11.764706%,0%);fill-opacity:1;" d="M 3.5 5 L 35.5 5 C 35.800781 5 36 5.199219 36 5.5 C 36 5.800781 35.800781 6 35.5 6 L 3.5 6 C 3.199219 6 3 5.800781 3 5.5 C 3 5.199219 3.199219 5 3.5 5 Z M 3.5 5 "/>
<path style=" stroke:none;fill-rule:evenodd;fill:rgb(100%,100%,100%);fill-opacity:1;" d="M 2.5 62 L 10.5 62 C 10.800781 62 11 62.199219 11 62.5 C 11 62.800781 10.800781 63 10.5 63 L 2.5 63 C 2.199219 63 2 62.800781 2 62.5 C 2 62.199219 2.199219 62 2.5 62 Z M 2.5 62 "/>
</g>
</svg>
