<svg version="1.2" xmlns="http://www.w3.org/2000/svg" viewBox="0 0 187 140" width="187" height="140"><style>.a{stroke:#000;stroke-width:2.1}.b{fill:none;stroke:#fff;stroke-linecap:round;stroke-width:2}.c{fill:#fff}.d{fill:none;stroke:#fff;stroke-linecap:round;stroke-linejoin:round;stroke-width:1.8}.e{fill:none;stroke:#fff;stroke-linecap:round;stroke-width:3}.f{fill:#d41e00}</style><path class="a" d="m5.5 2l-3.5 8.5h36.2l-3.4-8.5zm-3.4 11.6v52.8h36v-52.8zm-0.1 55.9l3.4 8.5h29.3l3.5-8.5z"/><path class="a" d="m5.5 2l-3.5 8.5h36.2l-3.4-8.5zm-3.4 11.6v52.8h36v-52.8zm-0.1 55.9l3.4 8.5h29.3l3.5-8.5z"/><path fill-rule="evenodd" class="b" d="m13.5 49.6c0-1.3-0.1-2.5 0.3-3.6 0.3-1 0.6-2 0.8-3 0.2-0.9-0.5-1.1-1-1.7-0.5-0.4-1-1.1-1.6-1.5q-0.3-0.2-0.5-0.4c-0.4-0.5 0.4-0.1 0.5-0.1 1.6 0.6 3.2 1 4.7 1.7 0.2 0.1 0.9 0.3 1 0.6 0 0-2 0-2.2 0-0.5-0.1-0.7-0.1-0.7-0.6 0.1-0.5 1.2-1.1 1.5-1.3 1.5-1 3-1.9 4.2-3.3 0.6-0.6 0.9-0.9 1-1.7 0.2-1.2-1.2-1.9-1.2-3.1 0-0.2-0.1-0.3-0.1 0.1 0.1 1.5 0.9 2.9 1.7 4.1 0.6 0.9 1.2 1.8 1.5 2.8 0.1 0.1 0.2 1.2 0 1.2-0.7-0.1-0.5-2.5-0.5-2.9 0-0.7-0.1-1.3-0.2-1.9 0-0.2-0.1-0.9-0.3-0.9-0.3-0.1-0.1 0.6-0.1 0.9-0.1 1.7-0.4 3.3-1.1 4.8-0.8 1.7-2.1 3.4-3.8 4.3-0.3 0.2-1 0.5-1.3 0.3-0.4-0.3 0-1.7 0.1-2.1 0.1-0.8-0.4 0.4-0.5 0.6-0.4 1.5-0.3 2.9-1.1 4.4-0.4 0.6-0.8 1.9 0.4 1 0.9-0.6 1.4-1.5 2-2.5 0.3-0.6 1-1 1.6-1.3 0.7-0.4 1.1-0.5 0.4 0.3-0.5 0.6-2.3 2.3-1.6 1.9 0.5-0.3 2.7-1.7 3.2-0.9 0.3 0.4-0.1 0.7-0.5 0.9-0.9 0.3 1.7-1.2 2.7-1.5 1.3-0.6 1.5 1.2 2.3 1.9 0.6 0.5 1.1 1.3 1.3 2 0.1 0.1-0.1 0-0.2-0.1q-0.8-0.7-1.7-1.3c-0.8-0.5-1.6-1-2.4-1.4-0.3-0.2-0.6 0-0.3-0.6 0.8-1.8 2.1-3.2 3.2-4.8 0.2-0.4 0.6-0.8 0.6-1.2 0.1-0.3 0.3-0.8-0.1-0.3-0.9 1.1-1.4 3-1.1 4.4 0 0.1 0.1-0.1 0.1-0.2 0.3-0.6 0.5-1.2 0.7-1.8 0.4-0.9 0.8-2 1.6-2.7 0.3-0.2 2.2-0.4 2.2-0.9 0-1.3-2.2-1-2.9-1-1.2 0-2.3-0.1-3.5-0.2"/><path fill-rule="evenodd" class="c" d="m2.5 62h8c0.3 0 0.5 0.2 0.5 0.5 0 0.3-0.2 0.5-0.5 0.5h-8c-0.3 0-0.5-0.2-0.5-0.5 0-0.3 0.2-0.5 0.5-0.5z"/><path  d="m48.2 41q-0.1 0-0.1-0.2 0-0.1 0.1-0.1 0.9 0 1.3-0.2 0.5-0.1 0.6-0.5 0.1-0.5 0.1-1.3v-13.5q0-0.8-0.1-1.3-0.1-0.4-0.6-0.5-0.4-0.2-1.3-0.2-0.1 0-0.1-0.2 0-0.1 0.1-0.1h12.3q0.3 0 0.3 0.2v3.9q0 0.1-0.1 0.1-0.2 0-0.2-0.1-0.5-1.7-1.6-2.5-1.1-0.8-2.9-0.8h-0.9q-0.8 0-1.2 0.4-0.4 0.4-0.4 1.2v13.2q0 0.9 0.3 1.3 0.3 0.4 1 0.4h1q2.2 0 3.6-0.9 1.3-1 2-2.9 0-0.1 0.1-0.1 0.1 0 0.1 0.1 0.1 0 0.1 0-0.3 2.3-0.3 4.2 0 0.2 0 0.3-0.1 0.1-0.4 0.1zm11.2-6.5q0-1.2-0.9-1.8-0.9-0.7-2.6-0.7h-4v-0.8h4q1.7 0 2.6-0.6 0.9-0.6 0.9-1.6 0-0.1 0.1-0.1 0.2 0 0.2 0.1v2.6 1.4q0 1 0 1.5 0 0.1-0.1 0.1-0.2 0-0.2-0.1zm22.1 6.9q0 0.1-0.2 0.2-0.1 0-0.1-0.1l-14.3-16.2q-1-1.2-1.8-1.6-0.7-0.5-1.4-0.5-0.1 0-0.1-0.2 0-0.1 0.1-0.1h1.2q0.4 0 1.1 0h2.2q0.4 0 1 0 0.2 0 0.3 0.1 0.1 0.1 0.4 0.5 0.5 0.7 0.7 0.9l10.7 12.2zm-14.8-17.8h0.8v13.7q0 1.6 0.7 2.5 0.6 0.9 1.7 0.9 0.1 0 0.1 0.1 0 0.2-0.1 0.2-0.8 0-1.2 0h-1.6-1.8q-0.5 0-1.4 0-0.1 0-0.1-0.2 0-0.1 0.1-0.1 1.3 0 2-0.9 0.8-0.9 0.8-2.5zm14.8 17.9l-0.9-0.8v-14q0-1.6-0.6-2.5-0.7-0.9-1.8-0.9 0 0 0-0.2 0-0.1 0-0.1h1.3q0.9 0.1 1.5 0.1 0.6 0 1.6-0.1h1.4q0 0 0 0.1 0 0.2 0 0.2-1.2 0-1.9 0.9-0.6 0.9-0.6 2.5zm4-0.5q-0.1 0-0.1-0.1 0-0.2 0.1-0.2 0.9 0 1.3-0.2 0.5-0.1 0.6-0.5 0.2-0.4 0.2-1.3v-13.4q0-0.9-0.2-1.3-0.1-0.4-0.6-0.6-0.4-0.1-1.3-0.1-0.1 0-0.1-0.2 0-0.2 0.1-0.2h12.3q0.3 0 0.3 0.3v3.8q0 0.1-0.1 0.1-0.2 0.1-0.2 0-0.5-1.7-1.6-2.5-1.1-0.8-2.9-0.8h-0.8q-0.9 0-1.3 0.3-0.4 0.4-0.4 1.2v13.3q0 0.8 0.3 1.2 0.3 0.4 1 0.4h1q2.2 0 3.6-0.9 1.4-0.9 2-2.9 0 0 0.1 0 0.1 0 0.2 0 0 0.1 0 0.1-0.2 2.3-0.2 4.1 0 0.2-0.1 0.4-0.1 0-0.4 0zm11.2-6.4q0-1.2-0.9-1.9-0.9-0.7-2.6-0.7h-3.9v-0.8h3.9q1.7 0 2.6-0.6 0.9-0.5 0.9-1.6 0-0.1 0.1-0.1 0.2 0 0.2 0.1v2.6 1.4q0.1 1 0.1 1.6 0 0-0.2 0-0.2 0-0.2 0zm19 6.4q-0.7 0-2.5-2.4-1.8-2.4-4.3-6.7l2.7-0.8q2.4 3.6 4 5.7 1.6 2 2.8 3 1.3 0.9 2.5 0.9 0 0 0 0.2 0 0.1 0 0.1zm-6.3-18.2q2.7 0 4.1 1 1.5 1 1.5 2.7 0 1.7-1 3-0.9 1.3-2.4 2.1-1.5 0.7-3.2 0.7-1.1 0-1.6 0v6.4q0 0.9 0.2 1.3 0.1 0.4 0.5 0.5 0.4 0.2 1.4 0.2 0 0 0 0.2 0 0.1 0 0.1-1 0-1.5 0h-2.2-2.2q-0.5 0-1.5 0-0.1 0-0.1-0.1 0-0.2 0.1-0.2 0.9 0 1.3-0.2 0.5-0.1 0.6-0.5 0.2-0.4 0.2-1.3v-13.4q0-0.9-0.2-1.3-0.1-0.4-0.6-0.6-0.4-0.1-1.3-0.1 0 0 0-0.2 0-0.2 0-0.2h1.5q1.4 0.1 2.2 0.1 1 0 2-0.1 0.4 0 1 0 0.5-0.1 1.2-0.1zm2.3 4.8q0-2.4-0.7-3.3-0.7-0.9-2-0.9-1.2 0-1.7 0.5-0.5 0.4-0.5 1.4v6.2q0.7 0.1 1.7 0.1 1.7 0 2.4-0.9 0.8-1 0.8-3.1zm19.7 13.8q-3.3 0-5.8-1.2-2.4-1.3-3.7-3.4-1.3-2.1-1.3-4.7 0-2.7 1.5-4.9 1.4-2.2 4-3.4 2.6-1.2 5.8-1.2 1.4 0 2.8 0.2 1.4 0.2 2.2 0.6 0.3 0.1 0.4 0.2 0 0 0.1 0.4l0.3 4.1q0 0.1-0.1 0.1-0.2 0-0.2-0.1-0.4-0.9-1.2-2.1-0.9-1.1-2.2-2-1.4-0.8-3.2-0.8-1.8 0-3.4 1-1.5 1-2.4 2.9-0.9 1.9-0.9 4.4 0 2.7 1 4.9 1.1 2.1 2.9 3.3 1.8 1.2 4.1 1.2 1.2 0 1.8-0.3 0.7-0.2 1-1 0.3-0.7 0.3-2.2 0-1.5-0.2-2.1-0.2-0.6-0.8-0.8-0.5-0.2-1.9-0.2-0.2 0-0.2-0.2 0-0.1 0-0.2 0.1-0.1 0.1-0.1 2.5 0.2 4 0.2 1.5 0 3.1-0.1 0.1 0 0.1 0.2 0.1 0.2-0.1 0.2-0.5 0-0.7 0.2-0.2 0.2-0.3 0.9-0.1 0.6-0.1 2.3 0 1.3 0.1 1.8 0.1 0.6 0.1 0.7 0 0.2 0 0.3-0.1 0-0.3 0.1-3.7 0.8-6.7 0.8zm21.8-14.5q0.8-1.3 0.8-2.2 0-0.7-0.5-1.1-0.4-0.3-1.2-0.3 0 0 0-0.2 0-0.2 0-0.2h1.6q1.3 0.1 2.4 0.1 0.5 0 1.1-0.1h1.1q0.1 0 0.1 0.2 0 0.2-0.1 0.2-0.9 0-2.2 1.1-1.3 1.1-2.3 2.8l-3.8 6.3-0.6-0.5zm-9.6-0.7q-1.1-1.7-1.8-2.3-0.7-0.7-1.2-0.7-0.1 0-0.1-0.1 0-0.2 0.1-0.2h0.9q0.6 0.1 0.9 0.1 1 0 2.9-0.1h1.9q0.1 0 0.1 0.2 0 0.1-0.1 0.1-0.5 0-0.8 0.3-0.2 0.2-0.2 0.6 0 0.4 0.4 1.1l4.2 6.6-2.8 1.3zm7.4 5.5v6.9q0 0.9 0.2 1.3 0.1 0.4 0.5 0.6 0.5 0.1 1.4 0.1 0.1 0 0.1 0.2 0 0.1-0.1 0.1-1 0-1.5 0h-2.2-2.1q-0.6 0-1.6 0-0.1 0-0.1-0.1 0-0.2 0.1-0.2 0.9 0 1.3-0.1 0.5-0.2 0.6-0.6 0.2-0.4 0.2-1.3v-6.6zm-99 16q0 1.1 0.6 1.9 0.5 0.8 1.3 1.4 0.8 0.6 2.1 1.5 1.5 0.9 2.3 1.6 0.9 0.7 1.5 1.7 0.6 1 0.6 2.3 0 1.5-0.8 2.7-0.8 1.2-2.3 1.8-1.4 0.7-3.1 0.7-1.3 0-2.8-0.4-1.4-0.4-1.9-0.8-0.1-0.1-0.2-0.2-0.1-0.1-0.1-0.4l-0.1-4.6q0-0.1 0.2-0.1 0.1 0 0.2 0.1 0.8 1.7 1.5 2.8 0.6 1.1 1.6 2 1 0.8 2.3 0.8 1.2 0 1.9-0.6 0.8-0.6 0.8-2.1 0-1.3-0.6-2.3-0.6-0.9-1.4-1.6-0.8-0.6-2.2-1.6-1.4-0.9-2.2-1.5-0.7-0.7-1.3-1.6-0.5-0.8-0.5-2.1 0-1.5 0.8-2.5 0.9-1.1 2.3-1.6 1.4-0.5 3-0.5 1 0 2 0.2 1.1 0.1 1.7 0.4 0.3 0.1 0.3 0.3 0.1 0.1 0.1 0.3v4.2q0 0.1-0.1 0.2-0.2 0-0.2-0.1l-0.2-0.5q-0.7-1.8-1.7-3.1-1-1.3-2.7-1.3-1.2 0-1.9 0.7-0.8 0.6-0.8 1.9zm16.4-2.2q-3.5-0.1-5 4.4 0 0.1-0.2 0.1-0.1 0-0.1-0.1 0.1-1.1 0.2-3 0.2-1.8 0.2-2.8 0-0.1 0.1-0.1 0.2 0 0.2 0.1 0 0.7 1.7 0.7 2.4 0.1 5.8 0.1 1.7 0 3.6-0.1h2q1.1 0 1.6-0.2 0.5-0.1 0.6-0.5 0.1-0.2 0.2-0.2 0.2 0 0.2 0.2-0.1 0.8-0.2 2.7-0.1 2-0.1 3.1 0 0.1-0.1 0.1-0.2 0-0.2-0.1-0.5-2.2-1.6-3.3-1.2-1.1-3-1.1-0.8 0-1.1 0.3-0.3 0.4-0.3 1.4v13.4q0 0.9 0.2 1.3 0.2 0.4 0.7 0.5 0.5 0.2 1.5 0.2 0.1 0 0.1 0.1 0 0.2-0.1 0.2-1 0-1.6 0l-2.4-0.1-2.4 0.1q-0.6 0-1.7 0 0 0 0-0.2 0-0.1 0-0.1 1.1 0 1.6-0.2 0.5-0.1 0.7-0.5 0.2-0.5 0.2-1.3v-13.5q0-1-0.3-1.3-0.2-0.4-1-0.4zm22.3 17.9q-2.7 0-4.9-1.3-2.1-1.3-3.2-3.4-1.1-2.2-1.1-4.7 0-3 1.5-5.1 1.5-2.2 3.8-3.3 2.4-1 4.9-1 2.7 0 4.8 1.3 2.1 1.2 3.2 3.4 1.1 2.1 1.1 4.5 0 2.6-1.4 4.8-1.4 2.2-3.7 3.5-2.3 1.3-5 1.3zm0.9-0.8q1.6 0 2.9-0.9 1.3-1 2-2.8 0.8-1.8 0.8-4.3 0-2.7-0.8-4.8-0.9-2.1-2.4-3.3-1.5-1.2-3.6-1.2-2.6 0-4.1 2-1.4 2-1.4 5.6 0 2.8 0.9 5 0.8 2.2 2.3 3.5 1.5 1.2 3.4 1.2zm26 0.4q-0.7 0-2.5-2.4-1.8-2.4-4.3-6.8l2.7-0.8q2.4 3.7 4 5.7 1.6 2.1 2.8 3 1.3 1 2.5 1 0 0 0 0.1 0 0.2 0 0.2zm-6.3-18.2q2.7 0 4.1 1 1.5 0.9 1.5 2.7 0 1.6-1 3-0.9 1.3-2.4 2.1-1.5 0.7-3.2 0.7-1.1 0-1.6-0.1v6.5q0 0.9 0.2 1.3 0.1 0.4 0.5 0.5 0.5 0.2 1.4 0.2 0 0 0 0.1 0 0.2 0 0.2-1 0-1.5 0l-2.2-0.1-2.1 0.1q-0.6 0-1.6 0-0.1 0-0.1-0.2 0-0.1 0.1-0.1 0.9 0 1.3-0.2 0.5-0.1 0.6-0.5 0.2-0.5 0.2-1.3v-13.5q0-0.8-0.2-1.2-0.1-0.5-0.5-0.6-0.5-0.2-1.4-0.2 0 0 0-0.1 0-0.2 0-0.2h1.6q1.3 0.1 2.1 0.1 1 0 2-0.1 0.4 0 1-0.1 0.5 0 1.2 0zm2.3 4.8q0-2.4-0.7-3.3-0.7-0.9-2-0.9-1.2 0-1.7 0.4-0.5 0.5-0.5 1.5v6.1q0.7 0.2 1.7 0.2 1.7 0 2.4-1 0.8-0.9 0.8-3zm29.6 13.1q0.2 0 0.2 0.1 0 0.2-0.2 0.2-0.5 0-1.8-0.1-1.2 0-1.8 0-0.7 0-1.7 0-1 0.1-1.6 0.1-0.1 0-0.1-0.2 0-0.1 0.1-0.1 0.7 0 1.1-0.2 0.3-0.2 0.3-0.6 0-0.5-0.6-1.6l-5.9-11.6 1.5-2.5-5.8 12.7q-0.4 0.8-0.4 1.6 0 1 0.7 1.6 0.8 0.6 2 0.6 0.2 0 0.2 0.1 0 0.2-0.2 0.2-0.5 0-1.5-0.1-1.1 0-1.9 0-0.8 0-1.9 0-1 0.1-1.6 0.1-0.1 0-0.1-0.2 0-0.1 0.1-0.1 0.8 0 1.4-0.4 0.5-0.3 1.1-1.1 0.6-0.9 1.3-2.6l6.3-13.8q0.1-0.1 0.3-0.1 0.2 0 0.2 0.1l7.3 14.2q1 2.1 1.7 2.9 0.6 0.8 1.3 0.8zm-15.4-7.1h8.4l0.2 0.8h-9zm27.2 7.8q-3.3 0-5.7-1.2-2.4-1.3-3.7-3.4-1.3-2.1-1.3-4.7 0-2.8 1.4-4.9 1.5-2.2 4.1-3.4 2.5-1.2 5.8-1.2 1.4 0 2.8 0.2 1.3 0.2 2.2 0.6 0.3 0.1 0.3 0.2 0.1 0 0.1 0.4l0.4 4.1q0 0-0.2 0.1-0.1 0-0.2-0.1-0.3-1-1.2-2.1-0.8-1.1-2.2-2-1.3-0.8-3.1-0.8-1.9 0-3.4 1-1.6 1-2.5 2.9-0.8 1.9-0.8 4.4 0 2.7 1 4.9 1 2.1 2.9 3.3 1.8 1.2 4.1 1.2 1.2 0 1.8-0.3 0.6-0.2 0.9-1 0.3-0.8 0.3-2.2 0-1.5-0.2-2.1-0.1-0.6-0.7-0.8-0.6-0.2-2-0.2-0.2 0-0.2-0.3 0-0.1 0.1-0.1 0-0.1 0.1-0.1 2.5 0.1 4 0.1 1.5 0 3.1 0 0.1 0 0.1 0.2 0 0.2-0.1 0.2-0.6-0.1-0.8 0.2-0.2 0.2-0.3 0.8 0 0.7 0 2.4 0 1.3 0.1 1.8 0.1 0.6 0.1 0.7 0 0.2-0.1 0.2 0 0.1-0.2 0.2-3.8 0.8-6.8 0.8zm10.2-0.4q-0.1 0-0.1-0.2 0-0.1 0.1-0.1 1 0 1.4-0.2 0.4-0.1 0.6-0.5 0.1-0.5 0.1-1.3v-13.5q0-0.8-0.1-1.2-0.2-0.4-0.6-0.6-0.5-0.2-1.4-0.2-0.1 0-0.1-0.1 0-0.2 0.1-0.2h12.3q0.3 0 0.3 0.3l0.1 3.8q0 0.1-0.2 0.1-0.1 0-0.2-0.1-0.4-1.6-1.5-2.5-1.1-0.8-2.9-0.8h-0.9q-0.9 0-1.3 0.4-0.4 0.4-0.4 1.2v13.3q0 0.8 0.3 1.2 0.4 0.4 1 0.4h1q2.3 0 3.6-0.9 1.4-0.9 2-2.9 0 0 0.1 0 0.1 0 0.2 0 0.1 0 0.1 0.1-0.3 2.2-0.3 4.1 0 0.2-0.1 0.3-0.1 0.1-0.3 0.1zm11.1-6.4q0-1.2-0.9-1.9-0.9-0.7-2.6-0.7h-3.9v-0.8h3.9q1.7 0 2.6-0.6 0.9-0.6 0.9-1.6 0-0.1 0.2-0.1 0.1 0 0.1 0.1v2.6 1.4q0.1 1 0.1 1.6 0 0-0.2 0-0.2 0-0.2 0z"/><path class="a" d="m5.5 2l-3.5 8.5h36.2l-3.4-8.5zm-3.4 11.6v52.8h36v-52.8zm-0.1 55.9l3.4 8.5h29.3l3.5-8.5z"/><path class="d" d="m19.5 28.9c0.3-0.7 0.5-1.1 0.7-1.2 0.2-0.1 0.4-0.1 0.6 0 0.2 0.1 0.4 0.5 0.7 1.2l2.7 6.1c0.1 0.2 0.1 0.3 0.2 0.4q0.1 0.1 0.2 0.2c0.1 0 0.2 0 0.5 0.1l6.4 0.6c0.8 0.1 1.2 0.2 1.4 0.4 0.1 0.1 0.2 0.4 0.2 0.6-0.1 0.2-0.4 0.5-1 1.1l-4.7 4.4c-0.2 0.2-0.3 0.2-0.4 0.3q0 0.2-0.1 0.3c0 0.1 0 0.3 0.1 0.5l1.3 6.5c0.2 0.8 0.3 1.2 0.2 1.4-0.1 0.2-0.3 0.4-0.5 0.4-0.3 0-0.6-0.2-1.3-0.6l-5.6-3.3c-0.2-0.1-0.3-0.2-0.5-0.2q-0.1 0-0.2 0c-0.2 0-0.3 0.1-0.5 0.2l-5.6 3.3c-0.7 0.4-1 0.6-1.3 0.6-0.2 0-0.4-0.2-0.5-0.4-0.1-0.2 0-0.6 0.2-1.4l1.3-6.5c0-0.2 0.1-0.4 0.1-0.5q-0.1-0.1-0.1-0.3c-0.1-0.1-0.2-0.1-0.4-0.3l-4.7-4.4c-0.6-0.6-0.9-0.9-1-1.1 0-0.2 0.1-0.5 0.2-0.6 0.2-0.2 0.6-0.3 1.4-0.4l6.4-0.6c0.3-0.1 0.4-0.1 0.5-0.1q0.1-0.1 0.2-0.2c0.1-0.1 0.1-0.2 0.2-0.4z"/><path fill-rule="evenodd" class="e" d="m17.5 44.7q0-1.3 0-2.6c0-0.4 0.1-1.3-0.1-1.7-0.1-0.3 0-0.5 0.2-0.7 0.5-0.9 1.1-1.8 1.7-2.6 0.4-0.6 1.5-1.4 1.6-2.2 0.1-0.2 0.2-1.1-0.1-1.2-0.5-0.3-0.9 0.5-1.2 0.8-0.8 0.8-1.1 1.9-1.6 2.9-0.3 0.6-0.6 1.1-0.9 1.7-0.1 0.3 0.2 0.2 0.4 0.3 1.2 0.1 2.9 0.1 4-0.4 0.9-0.4-0.7-1.5-0.9-1.6-2.4-1.4-3.6 1.7-2.5 3.6 1 1.9 4 0.2 4.5-1.4 0.2-0.7-0.4-1.3-1.1-1.4-1.3-0.2-1.8 1.3-1.8 2.3 0 0.8 0.3 1.4 1.1 1.4 0.8-0.1 2.5-0.8 2.9-1.6 0.3-0.6-1.9-0.4-2-0.4-1.2 0.1-2.7 0.5-3.1 1.9-0.4 1.6 2 2.3 3.1 1.8 0.7-0.3 1-1.5 0.5-2-0.9-1-1.5 0.8-1.6 1.4-0.4 1.9 0.8 1.3 2 1.6 0.9 0.2 0.9 1 1.4 1.7 0.2 0.2 0.3 0.3 0.5 0.3 0.1 0 0.7 0.1 0.7 0.1 0.1-0.5-0.7-1.6-0.9-2-0.6-1-1.4-2.2-1.6-3.4-0.4-2 2.2-2.5 3.6-2.7 0.2 0 1.4-0.2 1.2-0.2-1.2-0.1-2.4 0-3.6 0-0.8 0-1.6 0-2.4 0-0.4 0-0.8 0-1.1-0.4-0.9-1.2-0.5-3.4-0.3-4.7 0-0.2 0.1-0.6 0.1-0.8-0.1-0.1-0.2 0.3-0.2 0.4-0.3 0.6-0.4 1.3-0.6 2-0.4 1.6-0.9 4.1-2.9 3.9-1.1-0.1-4.4-0.9-3.3-0.5 0.5 0.2 1 0.3 1.5 0.5 0.6 0.3 1.1 0.6 1.7 0.9 0.9 0.4 1 1.2 0.9 2.2-0.2 1.4-0.5 2.7-0.5 4.1"/><path fill-rule="evenodd" class="b" d="m14.1 40c-0.8 0-1.1-0.1-1.7-0.6-0.3-0.3-0.5-0.5-0.9-0.7-0.5-0.3-1-0.7-1.6-0.8-0.2 0-0.4-0.2-0.6-0.3-0.5-0.2 0.9 0.1 1.3-0.1 0.7-0.2-0.5-0.1-0.8-0.1-0.3 0-0.5 0-0.7-0.1"/><path fill-rule="evenodd" class="b" d="m10.9 37.1c1 0 2.3 0.2 3.3-0.1 0.5-0.1 1.1-0.2 1.7-0.2 0.3 0 1.4 0.1 1.1-0.3"/><path fill-rule="evenodd" class="b" d="m16.6 37.9c0 0-0.2 0-0.2 0 0.6-0.1 1.2-0.2 1.8-0.2"/><path fill-rule="evenodd" class="b" d="m17.7 35.9c0-0.7-0.1-1.4 0.2-2 0.4-0.7 0.8-1.3 1.1-2.1 0.1-0.3 0.1-0.7 0.3-1 0.1-0.4 0.3-0.6 0.5-0.9 0.3-0.2 0.3-0.5 0.4-0.8"/><path fill-rule="evenodd" class="b" d="m20.2 29.1c0 0.6 0.6 1.3 0.9 1.9 0.3 0.8 0.9 1.4 1.4 2.1 0.4 0.5 0.8 0.9 0.9 1.5 0.2 0.5 0.4 1 0.6 1.5"/><path fill-rule="evenodd" class="b" d="m24 36.1c0.9 0 1.8-0.1 2.7 0.2 0.6 0.3 1.3 0.3 2 0.4 0.7 0.1 1.3 0.4 2 0.4 0.1 0 1.1 0.1 0.9 0.3"/><path fill-rule="evenodd" class="b" d="m31.6 37.4c-0.7 0-1.1 0.1-1.7 0.6-0.7 0.5-1.4 1.2-1.9 1.8-0.7 1-1.7 1.7-2.4 2.8"/><path fill-rule="evenodd" class="b" d="m25.6 42.6c1.3 0 2.1-1.5 3-2.3 0.5-0.5 1.1-1 1.6-1.6 0.3-0.3 0.5-0.7 0.8-0.9 0.2-0.1 0.3-0.1 0.3-0.2"/><path fill-rule="evenodd" class="b" d="m25.7 43.3c0-0.6 0.1 1.2 0.3 1.7 0.3 1.1 0.6 2.2 1 3.2 0.2 0.6 0.5 1.5 0.5 2.1 0 0.3 0.4 0.6 0 0.6"/><path fill-rule="evenodd" class="b" d="m27.5 50.9c-1.4-0.5-1.9-2-3.2-2.7-0.6-0.3-1.3-0.9-2-1.1-0.4-0.1-0.7-0.5-1.2-0.5"/><path fill-rule="evenodd" class="b" d="m21.1 46.5c0.8 0.1 1.6 0.7 2.1 1.3 0.5 0.4 0.9 1.4 1.5 1.6 0.5 0.1-1-0.6-1.4-1-0.4-0.3-0.8-1-1.4-1-0.6 0-1-0.5-1.5-0.7"/><path fill-rule="evenodd" class="b" d="m20.4 46.7c-0.1 0.2-0.8 0.1-0.9 0.1-0.6 0-1.1 0.4-1.6 0.8-0.7 0.5-1.3 1-2.1 1.4-0.4 0.2-1.3 0.6-1.5 1.1-0.1 0.2-1 0.8-1 0.7-0.1-0.1 2.9-1.7 3.2-1.9 0.7-0.4 1.2-0.9 2-1.2 0.3-0.1 0.8-0.2 0.9-0.5"/><path fill-rule="evenodd" class="b" d="m13.5 49.6c0-1.3-0.1-2.5 0.3-3.6 0.3-1 0.6-2 0.8-3 0.2-0.9-0.5-1.1-1-1.7-0.5-0.4-1-1.1-1.6-1.5q-0.3-0.2-0.5-0.4c-0.4-0.5 0.4-0.1 0.5-0.1 1.6 0.6 3.2 1 4.7 1.7 0.2 0.1 0.9 0.3 1 0.6 0 0-2 0-2.2 0-0.5-0.1-0.7-0.1-0.7-0.6 0.1-0.5 1.2-1.1 1.5-1.3 1.5-1 3-1.9 4.2-3.3 0.6-0.6 0.9-0.9 1-1.7 0.2-1.2-1.2-1.9-1.2-3.1 0-0.2-0.1-0.3-0.1 0.1 0.1 1.5 0.9 2.9 1.7 4.1 0.6 0.9 1.2 1.8 1.5 2.8 0.1 0.1 0.2 1.2 0 1.2-0.7-0.1-0.5-2.5-0.5-2.9 0-0.7-0.1-1.3-0.2-1.9 0-0.2-0.1-0.9-0.3-0.9-0.3-0.1-0.1 0.6-0.1 0.9-0.1 1.7-0.4 3.3-1.1 4.8-0.8 1.7-2.1 3.4-3.8 4.3-0.3 0.2-1 0.5-1.3 0.3-0.4-0.3 0-1.7 0.1-2.1 0.1-0.8-0.4 0.4-0.5 0.6-0.4 1.5-0.3 2.9-1.1 4.4-0.4 0.6-0.8 1.9 0.4 1 0.9-0.6 1.4-1.5 2-2.5 0.3-0.6 1-1 1.6-1.3 0.7-0.4 1.1-0.5 0.4 0.3-0.5 0.6-2.3 2.3-1.6 1.9 0.5-0.3 2.7-1.7 3.2-0.9 0.3 0.4-0.1 0.7-0.5 0.9-0.9 0.3 1.7-1.2 2.7-1.5 1.3-0.6 1.5 1.2 2.3 1.9 0.6 0.5 1.1 1.3 1.3 2 0.1 0.1-0.1 0-0.2-0.1q-0.8-0.7-1.7-1.3c-0.8-0.5-1.6-1-2.4-1.4-0.3-0.2-0.6 0-0.3-0.6 0.8-1.8 2.1-3.2 3.2-4.8 0.2-0.4 0.6-0.8 0.6-1.2 0.1-0.3 0.3-0.8-0.1-0.3-0.9 1.1-1.4 3-1.1 4.4 0 0.1 0.1-0.1 0.1-0.2 0.3-0.6 0.5-1.2 0.7-1.8 0.4-0.9 0.8-2 1.6-2.7 0.3-0.2 2.2-0.4 2.2-0.9 0-1.3-2.2-1-2.9-1-1.2 0-2.3-0.1-3.5-0.2"/><path fill-rule="evenodd" class="c" d="m2 24.9h11.5c0.2 0 0.4 0.2 0.4 0.4 0 0.3-0.2 0.4-0.4 0.4h-11.5c-0.3 0-0.5-0.1-0.5-0.4 0-0.2 0.2-0.4 0.5-0.4z"/><path fill-rule="evenodd" class="c" d="m2 24.9h11.5c0.2 0 0.4 0.2 0.4 0.4 0 0.3-0.2 0.4-0.4 0.4h-11.5c-0.3 0-0.5-0.1-0.5-0.4 0-0.2 0.2-0.4 0.5-0.4z"/><path fill-rule="evenodd" class="c" d="m2 29h6.9c0.2 0 0.4 0.2 0.4 0.4 0 0.2-0.2 0.4-0.4 0.4h-6.9c-0.3 0-0.5-0.2-0.5-0.4 0-0.2 0.2-0.4 0.5-0.4z"/><path fill-rule="evenodd" class="f" d="m3.5 5h32c0.3 0 0.5 0.2 0.5 0.5 0 0.3-0.2 0.5-0.5 0.5h-32c-0.3 0-0.5-0.2-0.5-0.5 0-0.3 0.2-0.5 0.5-0.5z"/><path fill-rule="evenodd" class="c" d="m2.5 62h8c0.3 0 0.5 0.2 0.5 0.5 0 0.3-0.2 0.5-0.5 0.5h-8c-0.3 0-0.5-0.2-0.5-0.5 0-0.3 0.2-0.5 0.5-0.5z"/></svg>